<svg xmlns="http://www.w3.org/2000/svg" viewBox="0 0 300 105.25"><defs><style>.cls-1{fill:#3f51b5;}.cls-2{fill:#888;}</style></defs><title>logo</title><g id="Camada_2" data-name="Camada 2"><g id="Camada_1-2" data-name="Camada 1"><polygon class="cls-1" points="173.83 19.52 173.83 17.89 136.67 0 99.55 17.88 99.55 19.54 136.67 37.43 173.83 19.52"/><path class="cls-1" d="M112.41,29V39.7l22.38,10.79h3.76l22.31-10.76s0-.09.06-.14V29L136.66,40.7Z"/><polygon class="cls-1" points="169.91 45.36 169.91 24.55 166.98 26.04 166.98 45.36 165.06 51.2 167.95 55.06 168.93 55.06 171.83 51.2 169.91 45.36"/><path class="cls-2" d="M.19,103v-3a18.84,18.84,0,0,0,5,1.81,24.47,24.47,0,0,0,5.74.87c3.75,0,6.65-.69,8.72-2.09s3.11-3.76,3.11-7.11a7.25,7.25,0,0,0-3.9-6.84,33.57,33.57,0,0,0-6.49-2.27,49.43,49.43,0,0,1-6.52-2,10.12,10.12,0,0,1-4.16-3.15A9.09,9.09,0,0,1,0,73.42a10.36,10.36,0,0,1,3.76-8.36,14.83,14.83,0,0,1,9.85-3.15,26.74,26.74,0,0,1,7.8,1.15,29.38,29.38,0,0,1,2.74,1.16v3c-1.26-.58-2.35-1-3.26-1.42a20,20,0,0,0-3.27-1,21.74,21.74,0,0,0-4.2-.44c-3.6,0-6.27.84-8,2.5a8.8,8.8,0,0,0-2.6,6.65A6.68,6.68,0,0,0,4,77.67,7.46,7.46,0,0,0,7,80a52.42,52.42,0,0,0,5.78,1.87,58.87,58.87,0,0,1,6.74,2.2,10.6,10.6,0,0,1,4.22,3.24,9.4,9.4,0,0,1,1.8,6.07,10.66,10.66,0,0,1-3.86,8.76q-3.86,3.13-11,3.13a25.67,25.67,0,0,1-6.12-.78A20.7,20.7,0,0,1,.19,103Z"/><path class="cls-2" d="M35.2,62.75H38v41.72H35.2Z"/><path class="cls-2" d="M47.78,103v-3a18.84,18.84,0,0,0,5,1.81,24.54,24.54,0,0,0,5.74.87c3.75,0,6.66-.69,8.73-2.09s3.1-3.76,3.1-7.11a7.21,7.21,0,0,0-3.9-6.84A33.57,33.57,0,0,0,60,84.38a49.92,49.92,0,0,1-6.52-2,10,10,0,0,1-4.15-3.15,9,9,0,0,1-1.69-5.76,10.36,10.36,0,0,1,3.76-8.36,14.83,14.83,0,0,1,9.85-3.15A26.74,26.74,0,0,1,69,63.06a29.63,29.63,0,0,1,2.75,1.16v3c-1.27-.58-2.36-1-3.26-1.42a20.45,20.45,0,0,0-3.28-1A21.74,21.74,0,0,0,61,64.4c-3.6,0-6.27.84-8,2.5a8.77,8.77,0,0,0-2.61,6.65,6.68,6.68,0,0,0,1.14,4.12A7.46,7.46,0,0,0,54.61,80a52.42,52.42,0,0,0,5.78,1.87,58.21,58.21,0,0,1,6.74,2.2,10.7,10.7,0,0,1,4.23,3.24,9.46,9.46,0,0,1,1.79,6.07,10.66,10.66,0,0,1-3.85,8.76q-3.85,3.13-11,3.13a25.67,25.67,0,0,1-6.12-.78A20.7,20.7,0,0,1,47.78,103Z"/><path class="cls-2" d="M82.79,62.75h23.78v2.5h-21v16.6H104.8v2.49H85.54V102h22.25v2.49h-25Z"/><path class="cls-2" d="M115.78,103v-3a18.84,18.84,0,0,0,5,1.81,24.54,24.54,0,0,0,5.75.87c3.74,0,6.65-.69,8.72-2.09s3.1-3.76,3.1-7.11a7.21,7.21,0,0,0-3.9-6.84A33.31,33.31,0,0,0,128,84.38a49.92,49.92,0,0,1-6.52-2,10.09,10.09,0,0,1-4.15-3.15,9.1,9.1,0,0,1-1.69-5.76,10.39,10.39,0,0,1,3.76-8.36,14.83,14.83,0,0,1,9.85-3.15,26.74,26.74,0,0,1,7.8,1.15,29.63,29.63,0,0,1,2.75,1.16v3c-1.27-.58-2.36-1-3.26-1.42a20.45,20.45,0,0,0-3.28-1,21.74,21.74,0,0,0-4.2-.44c-3.6,0-6.27.84-8,2.5a8.77,8.77,0,0,0-2.61,6.65,6.68,6.68,0,0,0,1.14,4.12A7.49,7.49,0,0,0,122.62,80a51.4,51.4,0,0,0,5.77,1.87,58.21,58.21,0,0,1,6.74,2.2,10.7,10.7,0,0,1,4.23,3.24,9.46,9.46,0,0,1,1.79,6.07,10.66,10.66,0,0,1-3.85,8.76q-3.86,3.13-11,3.13a25.67,25.67,0,0,1-6.12-.78A20.7,20.7,0,0,1,115.78,103Z"/><path class="cls-2" d="M149.52,84a24.31,24.31,0,0,1,2.65-11.56,19,19,0,0,1,7.44-7.76,21.74,21.74,0,0,1,11-2.74,26,26,0,0,1,5.11.5,12.4,12.4,0,0,1,3.66,1.15v2.62a25.85,25.85,0,0,0-8.52-1.72,19.53,19.53,0,0,0-9.3,2.22,16.22,16.22,0,0,0-6.64,6.62A21.58,21.58,0,0,0,152.45,84q0,9,4.91,13.83t14.16,4.83a21.19,21.19,0,0,0,8.3-1.68v2.56a14.12,14.12,0,0,1-3.89,1.25,26.11,26.11,0,0,1-4.82.43q-10.43,0-16-5.52T149.52,84Z"/><path class="cls-2" d="M187.5,83.63a25.24,25.24,0,0,1,2.41-11.18,19,19,0,0,1,6.73-7.75,17.58,17.58,0,0,1,9.77-2.79,17.92,17.92,0,0,1,10,2.79A18.32,18.32,0,0,1,223,72.42a26,26,0,0,1,2.32,11.21A25.06,25.06,0,0,1,223,94.74a18.85,18.85,0,0,1-6.7,7.72,17.38,17.38,0,0,1-9.69,2.79,17.73,17.73,0,0,1-16.74-10.47A25.74,25.74,0,0,1,187.5,83.63Zm34.89,0a23.31,23.31,0,0,0-2.13-10.35,15.52,15.52,0,0,0-5.75-6.61,15.5,15.5,0,0,0-16.15,0,15.53,15.53,0,0,0-5.79,6.61,23.17,23.17,0,0,0-2.14,10.35A23.11,23.11,0,0,0,192.58,94a15.1,15.1,0,0,0,14,8.76,14.86,14.86,0,0,0,8-2.22A15.37,15.37,0,0,0,220.26,94,23.25,23.25,0,0,0,222.39,83.63Z"/><path class="cls-2" d="M235.18,62.75h2.75V102h21.16v2.49H235.18Z"/><path class="cls-2" d="M263.11,104.47l17.07-41.72h2.69L300,104.47h-3l-6-14.82H272.07l-6,14.82ZM290,87.15l-1.59-4q-5.22-13-6.71-17.14h-.13q-1.27,3.57-4.21,10.58-.9,2.16-4.3,10.58Z"/></g></g></svg>