<svg height="512" viewBox="0 0 64 64" width="512" xmlns="http://www.w3.org/2000/svg"><g id="Bill-Reciept"><path d="m58 26v26h-44v-26a4 4 0 0 1 4-4h36a4 4 0 0 1 4 4z" fill="#5aaae7"/><path d="m37 22v23a3 3 0 0 1 -3 3h-20v-22a4 4 0 0 1 4-4z" fill="#3d9ae2"/><path d="m38 6a3 3 0 0 0 -3 3v34a3 3 0 0 1 -6 0v-3h-22v-31a3 3 0 0 1 3-3z" fill="#e6e7e8"/><path d="m58 52h-47v4a2.006 2.006 0 0 0 2 2h46a2.006 2.006 0 0 0 2-2v-4z" fill="#acabb1"/><path d="m46.83 33.17a4.008 4.008 0 1 1 -2.83-1.17 4.025 4.025 0 0 1 2.83 1.17z" fill="#ffd422"/><path d="m32 55a1 1 0 0 1 -1-1v-2h10v2a1 1 0 0 1 -1 1z" fill="#898890"/><g fill="#d1d3d4"><path d="m29 43v-3h-26v3a3 3 0 0 0 3 3h26a3 3 0 0 1 -3-3z"/><path d="m32 16v4h-2v2h-2v-4h2v-4a2.006 2.006 0 0 1 2 2z"/><path d="m30 24h2v3a1 1 0 0 1 -1 1h-16a1 1 0 0 1 -1-1v-1h15a1 1 0 0 0 1-1z"/><path d="m41 9v7h-6v-7a3 3 0 0 1 6 0z"/></g><path d="m28 22h-16v3a1 1 0 0 0 1 1h16a1 1 0 0 0 1-1v-3z" fill="#ff9811"/><path d="m25 12h3a2.006 2.006 0 0 1 2 2v4h-18v-4a2.006 2.006 0 0 1 2-2z" fill="#ff9811"/><path d="m28 18v4h-10-4v-4z" fill="#ee8700"/><path d="m14 18h14v2h-14z" fill="#cc7400"/><path d="m14 29h10v2h-10z"/><path d="m26 29h2v2h-2z"/><path d="m14 33h10v2h-10z"/><path d="m26 33h2v2h-2z"/><path d="m61 51h-2v-25a5.006 5.006 0 0 0 -5-5h-18v-4h5a1 1 0 0 0 1-1v-7a4 4 0 0 0 -4-4h-28a4 4 0 0 0 -4 4v30h-3a1 1 0 0 0 -1 1v3a4 4 0 0 0 4 4h7v4h-2a1 1 0 0 0 -1 1v4a3 3 0 0 0 3 3h46a3 3 0 0 0 3-3v-4a1 1 0 0 0 -1-1zm-21-42v6h-4v-6a2 2 0 0 1 4 0zm-32 0a2 2 0 0 1 2-2h24.556a3.959 3.959 0 0 0 -.556 2v34a2 2 0 0 1 -4 0v-3a1 1 0 0 0 -1-1h-21zm-4 34v-2h24v2a3.959 3.959 0 0 0 .556 2h-22.556a2 2 0 0 1 -2-2zm11 4h17a4 4 0 0 0 4-4v-20h18a3 3 0 0 1 3 3v25h-42zm17 6h8v1h-8zm28 3a1 1 0 0 1 -1 1h-46a1 1 0 0 1 -1-1v-3h18v1a2 2 0 0 0 2 2h8a2 2 0 0 0 2-2v-1h18z"/><path d="m31 25v-3a1 1 0 0 0 -1-1h-1v-2h1a1 1 0 0 0 1-1v-4a3 3 0 0 0 -3-3h-14a3 3 0 0 0 -3 3v4a1 1 0 0 0 1 1h1v2h-1a1 1 0 0 0 -1 1v3a2 2 0 0 0 2 2h16a2 2 0 0 0 2-2zm-18-11a1 1 0 0 1 1-1h2v2h2v-2h2v2h2v-2h2v2h2v-2h2a1 1 0 0 1 1 1v3h-16zm2 5h12v2h-12zm-2 4h16v2h-16z"/><path d="m48.293 30.293-1.54 1.54a5.015 5.015 0 1 0 1.414 1.414l1.54-1.54zm-1.293 5.707a3 3 0 1 1 -3-3 2.951 2.951 0 0 1 1.285.3l-2.992 2.992 1.414 1.414 2.993-2.991a2.951 2.951 0 0 1 .3 1.285z"/><path d="m51 33h4v2h-4z"/><path d="m51 37h4v2h-4z"/></g></svg>