<?xml version="1.0" encoding="UTF-8"?>
<svg xmlns="http://www.w3.org/2000/svg" xmlns:xlink="http://www.w3.org/1999/xlink" width="48pt" height="48pt" viewBox="0 0 48 48" version="1.1">
<g id="surface1">
<path style=" stroke:none;fill-rule:nonzero;fill:rgb(100%,92.941176%,69.411765%);fill-opacity:1;" d="M 3.710938 17.234375 L 44.289062 17.234375 L 44.289062 42.789062 L 3.710938 42.789062 Z M 3.710938 17.234375 "/>
<path style=" stroke:none;fill-rule:nonzero;fill:rgb(100%,88.235294%,49.019608%);fill-opacity:1;" d="M 3.710938 23.292969 C 4.589844 23.625 5.535156 23.8125 6.527344 23.8125 C 8.75 23.8125 10.847656 22.882812 12.351562 21.328125 C 13.855469 22.882812 15.953125 23.8125 18.175781 23.8125 C 20.398438 23.8125 22.496094 22.882812 24 21.328125 C 25.503906 22.882812 27.601562 23.8125 29.824219 23.8125 C 32.046875 23.8125 34.144531 22.882812 35.648438 21.328125 C 37.152344 22.882812 39.25 23.8125 41.472656 23.8125 C 42.464844 23.8125 43.410156 23.625 44.289062 23.292969 L 44.289062 17.238281 L 3.710938 17.238281 Z M 3.710938 23.292969 "/>
<path style=" stroke:none;fill-rule:nonzero;fill:rgb(86.27451%,27.45098%,33.333333%);fill-opacity:1;" d="M 47.296875 15.734375 C 47.296875 18.949219 44.6875 21.558594 41.472656 21.558594 C 39.144531 21.558594 37.132812 20.191406 36.203125 18.214844 C 35.976562 17.734375 35.320312 17.734375 35.09375 18.214844 C 34.164062 20.191406 32.152344 21.558594 29.824219 21.558594 C 27.496094 21.558594 25.484375 20.191406 24.554688 18.214844 C 24.328125 17.734375 23.671875 17.734375 23.445312 18.214844 C 22.515625 20.191406 20.503906 21.558594 18.175781 21.558594 C 15.847656 21.558594 13.835938 20.191406 12.90625 18.214844 C 12.679688 17.734375 12.023438 17.734375 11.796875 18.214844 C 10.867188 20.191406 8.855469 21.558594 6.527344 21.558594 C 3.3125 21.558594 0.703125 18.949219 0.703125 15.734375 L 6.28125 5.96875 C 6.550781 5.5 7.046875 5.210938 7.585938 5.210938 L 40.414062 5.210938 C 40.953125 5.210938 41.449219 5.5 41.71875 5.96875 Z M 47.296875 15.734375 "/>
<path style=" stroke:none;fill-rule:nonzero;fill:rgb(90.196078%,39.215686%,43.137255%);fill-opacity:1;" d="M 40.414062 5.210938 L 7.585938 5.210938 C 7.046875 5.210938 6.550781 5.5 6.28125 5.96875 L 0.703125 15.734375 L 47.296875 15.734375 L 41.71875 5.96875 C 41.449219 5.5 40.953125 5.210938 40.414062 5.210938 Z M 40.414062 5.210938 "/>
<path style=" stroke:none;fill-rule:nonzero;fill:rgb(100%,100%,100%);fill-opacity:1;" d="M 31.515625 24.75 L 40.53125 24.75 L 40.53125 42.789062 L 31.515625 42.789062 Z M 31.515625 24.75 "/>
<path style=" stroke:none;fill-rule:nonzero;fill:rgb(100%,100%,100%);fill-opacity:1;" d="M 7.464844 24.75 L 27.757812 24.75 L 27.757812 39.03125 L 7.464844 39.03125 Z M 7.464844 24.75 "/>
<path style=" stroke:none;fill-rule:nonzero;fill:rgb(100%,96.470588%,84.705882%);fill-opacity:1;" d="M 18.117188 27.007812 L 9.722656 27.007812 L 9.722656 35.402344 Z M 18.117188 27.007812 "/>
<path style=" stroke:none;fill-rule:nonzero;fill:rgb(100%,96.470588%,84.705882%);fill-opacity:1;" d="M 10.996094 36.777344 L 13.480469 36.777344 L 23.25 27.007812 L 20.765625 27.007812 Z M 10.996094 36.777344 "/>
<path style=" stroke:none;fill-rule:nonzero;fill:rgb(100%,96.470588%,84.705882%);fill-opacity:1;" d="M 25.503906 29.261719 L 17.988281 36.777344 L 25.503906 36.777344 Z M 25.503906 29.261719 "/>
<path style=" stroke:none;fill-rule:nonzero;fill:rgb(100%,96.470588%,84.705882%);fill-opacity:1;" d="M 38.277344 28.328125 L 38.277344 27.007812 L 33.769531 27.007812 L 33.769531 32.835938 Z M 38.277344 28.328125 "/>
<path style=" stroke:none;fill-rule:nonzero;fill:rgb(100%,96.470588%,84.705882%);fill-opacity:1;" d="M 33.769531 36.023438 L 33.769531 36.777344 L 38.277344 36.777344 L 38.277344 31.515625 Z M 33.769531 36.023438 "/>
<path style=" stroke:none;fill-rule:nonzero;fill:rgb(0%,0%,0%);fill-opacity:1;" d="M 45.792969 42.085938 L 44.992188 42.085938 L 44.992188 21.226562 C 46.800781 20.0625 48 18.035156 48 15.734375 C 48 15.609375 47.96875 15.492188 47.90625 15.382812 L 42.328125 5.621094 C 41.9375 4.933594 41.203125 4.507812 40.414062 4.507812 L 7.585938 4.507812 C 6.796875 4.507812 6.0625 4.933594 5.671875 5.621094 L 0.09375 15.382812 C 0.03125 15.492188 0 15.609375 0 15.734375 C 0 18.035156 1.199219 20.0625 3.007812 21.226562 L 3.007812 42.085938 L 2.207031 42.085938 C 1.816406 42.085938 1.503906 42.398438 1.503906 42.789062 C 1.503906 43.175781 1.816406 43.492188 2.207031 43.492188 L 45.792969 43.492188 C 46.183594 43.492188 46.496094 43.175781 46.496094 42.789062 C 46.496094 42.398438 46.183594 42.085938 45.792969 42.085938 Z M 1.453125 16.4375 L 3.707031 16.4375 C 4.097656 16.4375 4.410156 16.121094 4.410156 15.734375 C 4.410156 15.34375 4.097656 15.03125 3.707031 15.03125 L 1.914062 15.03125 L 6.894531 6.320312 C 7.035156 6.070312 7.300781 5.914062 7.585938 5.914062 L 40.414062 5.914062 C 40.699219 5.914062 40.964844 6.070312 41.105469 6.320312 L 46.085938 15.03125 L 44.289062 15.03125 C 43.902344 15.03125 43.585938 15.34375 43.585938 15.734375 C 43.585938 16.121094 43.902344 16.4375 44.289062 16.4375 L 46.546875 16.4375 C 46.203125 18.929688 44.058594 20.855469 41.472656 20.855469 C 38.886719 20.855469 36.746094 18.929688 36.402344 16.4375 L 41.285156 16.4375 C 41.671875 16.4375 41.988281 16.121094 41.988281 15.734375 C 41.988281 15.34375 41.671875 15.03125 41.285156 15.03125 L 6.714844 15.03125 C 6.328125 15.03125 6.011719 15.34375 6.011719 15.734375 C 6.011719 16.121094 6.328125 16.4375 6.714844 16.4375 L 11.597656 16.4375 C 11.253906 18.929688 9.113281 20.855469 6.527344 20.855469 C 3.941406 20.855469 1.796875 18.929688 1.453125 16.4375 Z M 34.894531 16.4375 C 34.550781 18.929688 32.410156 20.855469 29.824219 20.855469 C 27.238281 20.855469 25.097656 18.929688 24.753906 16.4375 Z M 23.246094 16.4375 C 22.902344 18.929688 20.761719 20.855469 18.175781 20.855469 C 15.589844 20.855469 13.449219 18.929688 13.105469 16.4375 Z M 4.414062 21.90625 C 5.074219 22.136719 5.785156 22.261719 6.527344 22.261719 C 9.066406 22.261719 11.273438 20.800781 12.351562 18.679688 C 13.429688 20.800781 15.636719 22.261719 18.175781 22.261719 C 20.714844 22.261719 22.921875 20.800781 24 18.679688 C 25.078125 20.800781 27.285156 22.261719 29.824219 22.261719 C 32.363281 22.261719 34.570312 20.800781 35.648438 18.679688 C 36.726562 20.800781 38.933594 22.261719 41.472656 22.261719 C 42.214844 22.261719 42.925781 22.136719 43.585938 21.90625 L 43.585938 42.085938 L 41.238281 42.085938 L 41.238281 24.75 C 41.238281 24.363281 40.921875 24.046875 40.535156 24.046875 L 31.515625 24.046875 C 31.125 24.046875 30.8125 24.363281 30.8125 24.75 L 30.8125 42.085938 L 4.414062 42.085938 Z M 39.828125 38.328125 L 32.21875 38.328125 L 32.21875 25.453125 L 39.828125 25.453125 Z M 32.21875 39.734375 L 39.828125 39.734375 L 39.828125 42.085938 L 32.21875 42.085938 Z M 32.21875 39.734375 "/>
<path style=" stroke:none;fill-rule:nonzero;fill:rgb(0%,0%,0%);fill-opacity:1;" d="M 27.757812 24.046875 L 7.464844 24.046875 C 7.078125 24.046875 6.761719 24.363281 6.761719 24.75 L 6.761719 39.03125 C 6.761719 39.417969 7.078125 39.734375 7.464844 39.734375 L 27.757812 39.734375 C 28.144531 39.734375 28.460938 39.417969 28.460938 39.03125 L 28.460938 24.75 C 28.460938 24.363281 28.144531 24.046875 27.757812 24.046875 Z M 27.054688 38.328125 L 8.167969 38.328125 L 8.167969 25.453125 L 27.054688 25.453125 Z M 27.054688 38.328125 "/>
</g>
</svg>
