<?xml version="1.0" encoding="UTF-8"?>
<svg xmlns="http://www.w3.org/2000/svg" xmlns:xlink="http://www.w3.org/1999/xlink" width="48pt" height="48pt" viewBox="0 0 48 48" version="1.1">
<g id="surface1">
<path style=" stroke:none;fill-rule:nonzero;fill:rgb(43.921569%,45.882353%,87.843137%);fill-opacity:1;" d="M 2.15625 8.328125 L 45.84375 8.328125 C 46.671875 8.328125 47.34375 9 47.34375 9.828125 L 47.34375 38.171875 C 47.34375 39 46.671875 39.671875 45.84375 39.671875 L 2.15625 39.671875 C 1.328125 39.671875 0.65625 39 0.65625 38.171875 L 0.65625 9.828125 C 0.65625 9 1.328125 8.328125 2.15625 8.328125 Z M 2.15625 8.328125 "/>
<path style=" stroke:none;fill-rule:nonzero;fill:rgb(93.72549%,93.72549%,93.72549%);fill-opacity:1;" d="M 24.644531 24 C 24.644531 29.589844 20.113281 34.121094 14.527344 34.121094 C 8.9375 34.121094 4.40625 29.589844 4.40625 24 C 4.40625 18.410156 8.9375 13.878906 14.527344 13.878906 C 20.113281 13.878906 24.644531 18.410156 24.644531 24 Z M 24.644531 24 "/>
<path style=" stroke:none;fill-rule:nonzero;fill:rgb(38.039216%,78.039216%,82.352941%);fill-opacity:1;" d="M 6.488281 30.144531 C 8.402344 32.648438 11.375 34.121094 14.527344 34.121094 C 17.679688 34.121094 20.652344 32.648438 22.566406 30.144531 L 21.828125 28.585938 C 21.394531 27.667969 20.46875 27.082031 19.457031 27.082031 L 9.597656 27.082031 C 8.582031 27.082031 7.65625 27.667969 7.222656 28.585938 Z M 6.488281 30.144531 "/>
<path style=" stroke:none;fill-rule:nonzero;fill:rgb(38.039216%,78.039216%,82.352941%);fill-opacity:1;" d="M 14.527344 16.824219 C 16.324219 16.824219 17.78125 18.28125 17.78125 20.078125 L 17.78125 21.203125 C 17.78125 23 16.324219 24.457031 14.527344 24.457031 C 12.730469 24.457031 11.273438 23 11.273438 21.203125 L 11.273438 20.078125 C 11.273438 18.28125 12.730469 16.824219 14.527344 16.824219 Z M 14.527344 16.824219 "/>
<path style=" stroke:none;fill-rule:nonzero;fill:rgb(95.686275%,67.843137%,27.843137%);fill-opacity:1;" d="M 29.15625 13.878906 L 43.59375 13.878906 L 43.59375 17.632812 L 29.15625 17.632812 Z M 29.15625 13.878906 "/>
<path style=" stroke:none;fill-rule:nonzero;fill:rgb(34.509804%,37.647059%,74.901961%);fill-opacity:1;" d="M 43.59375 22.410156 L 29.15625 22.410156 C 28.792969 22.410156 28.5 22.117188 28.5 21.753906 C 28.5 21.394531 28.792969 21.097656 29.15625 21.097656 L 43.59375 21.097656 C 43.957031 21.097656 44.25 21.394531 44.25 21.753906 C 44.25 22.117188 43.957031 22.410156 43.59375 22.410156 Z M 43.59375 22.410156 "/>
<path style=" stroke:none;fill-rule:nonzero;fill:rgb(34.509804%,37.647059%,74.901961%);fill-opacity:1;" d="M 41.390625 26.53125 L 31.359375 26.53125 C 30.996094 26.53125 30.703125 26.238281 30.703125 25.875 C 30.703125 25.515625 30.996094 25.21875 31.359375 25.21875 L 41.390625 25.21875 C 41.753906 25.21875 42.046875 25.515625 42.046875 25.875 C 42.046875 26.238281 41.753906 26.53125 41.390625 26.53125 Z M 41.390625 26.53125 "/>
<path style=" stroke:none;fill-rule:nonzero;fill:rgb(34.509804%,37.647059%,74.901961%);fill-opacity:1;" d="M 43.59375 30.65625 L 29.15625 30.65625 C 28.792969 30.65625 28.5 30.359375 28.5 30 C 28.5 29.636719 28.792969 29.34375 29.15625 29.34375 L 43.59375 29.34375 C 43.957031 29.34375 44.25 29.636719 44.25 30 C 44.25 30.359375 43.957031 30.65625 43.59375 30.65625 Z M 43.59375 30.65625 "/>
<path style=" stroke:none;fill-rule:nonzero;fill:rgb(34.509804%,37.647059%,74.901961%);fill-opacity:1;" d="M 41.390625 34.777344 L 31.359375 34.777344 C 30.996094 34.777344 30.703125 34.480469 30.703125 34.121094 C 30.703125 33.757812 30.996094 33.464844 31.359375 33.464844 L 41.390625 33.464844 C 41.753906 33.464844 42.046875 33.757812 42.046875 34.121094 C 42.046875 34.480469 41.753906 34.777344 41.390625 34.777344 Z M 41.390625 34.777344 "/>
<path style=" stroke:none;fill-rule:nonzero;fill:rgb(0%,0%,0%);fill-opacity:1;" d="M 3.75 24 C 3.75 29.953125 8.574219 34.777344 14.527344 34.777344 C 20.476562 34.777344 25.300781 29.953125 25.300781 24 C 25.300781 18.046875 20.476562 13.222656 14.527344 13.222656 C 8.578125 13.230469 3.757812 18.050781 3.75 24 Z M 23.988281 24 C 23.992188 25.695312 23.53125 27.363281 22.664062 28.820312 L 22.421875 28.304688 C 22.265625 27.976562 21.875 27.835938 21.546875 27.992188 C 21.21875 28.148438 21.078125 28.539062 21.234375 28.867188 L 21.792969 30.050781 C 20 32.214844 17.335938 33.464844 14.527344 33.464844 C 11.714844 33.464844 9.050781 32.214844 7.257812 30.050781 L 7.820312 28.867188 C 8.148438 28.179688 8.839844 27.746094 9.597656 27.742188 L 17.953125 27.742188 C 18.316406 27.742188 18.609375 27.449219 18.609375 27.085938 C 18.609375 26.722656 18.316406 26.429688 17.953125 26.429688 L 9.597656 26.429688 C 8.328125 26.433594 7.175781 27.164062 6.632812 28.308594 L 6.386719 28.824219 C 4.351562 25.390625 4.691406 21.050781 7.234375 17.972656 C 9.777344 14.898438 13.972656 13.746094 17.730469 15.097656 C 21.484375 16.449219 23.988281 20.007812 23.988281 24 Z M 23.988281 24 "/>
<path style=" stroke:none;fill-rule:nonzero;fill:rgb(0%,0%,0%);fill-opacity:1;" d="M 10.617188 20.078125 L 10.617188 21.203125 C 10.617188 23.363281 12.367188 25.113281 14.527344 25.113281 C 16.683594 25.113281 18.4375 23.363281 18.4375 21.203125 L 18.4375 20.078125 C 18.4375 17.917969 16.683594 16.167969 14.527344 16.167969 C 12.367188 16.167969 10.617188 17.917969 10.617188 20.078125 Z M 17.125 20.078125 L 17.125 21.203125 C 17.125 22.636719 15.960938 23.800781 14.527344 23.800781 C 13.089844 23.800781 11.929688 22.636719 11.929688 21.203125 L 11.929688 20.078125 C 11.929688 18.644531 13.089844 17.480469 14.527344 17.480469 C 15.960938 17.480469 17.125 18.644531 17.125 20.078125 Z M 17.125 20.078125 "/>
<path style=" stroke:none;fill-rule:nonzero;fill:rgb(0%,0%,0%);fill-opacity:1;" d="M 45.84375 7.671875 L 18.890625 7.671875 C 18.527344 7.671875 18.234375 7.964844 18.234375 8.328125 C 18.234375 8.691406 18.527344 8.984375 18.890625 8.984375 L 45.84375 8.984375 C 46.308594 8.984375 46.6875 9.363281 46.6875 9.828125 L 46.6875 38.171875 C 46.6875 38.636719 46.308594 39.015625 45.84375 39.015625 L 2.15625 39.015625 C 1.691406 39.015625 1.3125 38.636719 1.3125 38.171875 L 1.3125 9.828125 C 1.3125 9.363281 1.691406 8.984375 2.15625 8.984375 L 6.28125 8.984375 C 6.644531 8.984375 6.9375 8.691406 6.9375 8.328125 C 6.9375 7.964844 6.644531 7.671875 6.28125 7.671875 L 2.15625 7.671875 C 0.964844 7.671875 0 8.636719 0 9.828125 L 0 38.171875 C 0 39.363281 0.964844 40.328125 2.15625 40.328125 L 45.84375 40.328125 C 47.035156 40.328125 48 39.363281 48 38.171875 L 48 9.828125 C 48 8.636719 47.035156 7.671875 45.84375 7.671875 Z M 45.84375 7.671875 "/>
<path style=" stroke:none;fill-rule:nonzero;fill:rgb(0%,0%,0%);fill-opacity:1;" d="M 10.921875 8.984375 L 14.25 8.984375 C 14.613281 8.984375 14.90625 8.691406 14.90625 8.328125 C 14.90625 7.964844 14.613281 7.671875 14.25 7.671875 L 10.921875 7.671875 C 10.558594 7.671875 10.265625 7.964844 10.265625 8.328125 C 10.265625 8.691406 10.558594 8.984375 10.921875 8.984375 Z M 10.921875 8.984375 "/>
<path style=" stroke:none;fill-rule:nonzero;fill:rgb(0%,0%,0%);fill-opacity:1;" d="M 29.15625 18.289062 L 43.59375 18.289062 C 43.957031 18.289062 44.25 17.996094 44.25 17.632812 L 44.25 13.878906 C 44.25 13.519531 43.957031 13.222656 43.59375 13.222656 L 29.15625 13.222656 C 28.792969 13.222656 28.5 13.519531 28.5 13.878906 L 28.5 17.632812 C 28.5 17.996094 28.792969 18.289062 29.15625 18.289062 Z M 29.8125 14.535156 L 42.9375 14.535156 L 42.9375 16.976562 L 29.8125 16.976562 Z M 29.8125 14.535156 "/>
<path style=" stroke:none;fill-rule:nonzero;fill:rgb(0%,0%,0%);fill-opacity:1;" d="M 29.15625 22.410156 L 43.59375 22.410156 C 43.957031 22.410156 44.25 22.117188 44.25 21.753906 C 44.25 21.394531 43.957031 21.097656 43.59375 21.097656 L 29.15625 21.097656 C 28.792969 21.097656 28.5 21.394531 28.5 21.753906 C 28.5 22.117188 28.792969 22.410156 29.15625 22.410156 Z M 29.15625 22.410156 "/>
<path style=" stroke:none;fill-rule:nonzero;fill:rgb(0%,0%,0%);fill-opacity:1;" d="M 31.359375 25.21875 C 30.996094 25.21875 30.703125 25.515625 30.703125 25.875 C 30.703125 26.238281 30.996094 26.53125 31.359375 26.53125 L 41.390625 26.53125 C 41.753906 26.53125 42.046875 26.238281 42.046875 25.875 C 42.046875 25.515625 41.753906 25.21875 41.390625 25.21875 Z M 31.359375 25.21875 "/>
<path style=" stroke:none;fill-rule:nonzero;fill:rgb(0%,0%,0%);fill-opacity:1;" d="M 29.15625 30.65625 L 43.59375 30.65625 C 43.957031 30.65625 44.25 30.359375 44.25 30 C 44.25 29.636719 43.957031 29.34375 43.59375 29.34375 L 29.15625 29.34375 C 28.792969 29.34375 28.5 29.636719 28.5 30 C 28.5 30.359375 28.792969 30.65625 29.15625 30.65625 Z M 29.15625 30.65625 "/>
<path style=" stroke:none;fill-rule:nonzero;fill:rgb(0%,0%,0%);fill-opacity:1;" d="M 31.359375 33.464844 C 30.996094 33.464844 30.703125 33.757812 30.703125 34.121094 C 30.703125 34.480469 30.996094 34.777344 31.359375 34.777344 L 41.390625 34.777344 C 41.753906 34.777344 42.046875 34.480469 42.046875 34.121094 C 42.046875 33.757812 41.753906 33.464844 41.390625 33.464844 Z M 31.359375 33.464844 "/>
</g>
</svg>
