<svg height="512" viewBox="0 0 64 64" width="512" xmlns="http://www.w3.org/2000/svg"><g id="Food-Delivery"><path d="m44 30v.32.68 2l2 1h2l2-1v-2-.68-.32z" fill="#ffc477"/><path d="m28.45 25.04 2.55 5.96-7.16-1.79a13.863 13.863 0 0 1 -6.84 1.79 14.023 14.023 0 1 1 11.45-5.96z" fill="#ffd422"/><path d="m6 49h52v12h-52z" fill="#8b5e3c"/><path d="m61 45v4h-3-52-3v-4h32 9 6 9z" fill="#a97c50"/><path d="m52.7 34.2-.7 2.8-3-1-1-2 2-1z" fill="#1e81ce"/><path d="m45 36 .82.82-1.82 8.18h-9v-4.1a6 6 0 0 1 3.56-5.48l2.74-1.22.7 2.8z" fill="#5aaae7"/><path d="m46 34-1 2-3 1-.7-2.8 2.7-1.2z" fill="#1e81ce"/><path d="m46 34h2l1 2-.82.82-1.18 1.18-1.18-1.18-.82-.82z" fill="#d80027"/><path d="m48.18 36.82 1.82 8.18h-6l1.82-8.18 1.18 1.18z" fill="#ff5023"/><path d="m59 40.9v4.1h-9l-1.82-8.18.82-.82 3 1 .7-2.8 2.74 1.22a6 6 0 0 1 3.56 5.48z" fill="#5aaae7"/><path d="m40 20v4a5.529 5.529 0 0 0 .04.71c0 .03.01.06.01.09a2.8 2.8 0 0 1 -1.05.2 3 3 0 0 1 0-6z" fill="#ff9811"/><path d="m50 30.32a7.017 7.017 0 0 1 -7.95-1.37 6.961 6.961 0 0 1 -2-4.15c0-.03-.01-.06-.01-.09a5.529 5.529 0 0 1 -.04-.71v-4h4.33a7.982 7.982 0 0 0 4.8-1.6l1.87-1.4.54 1.63a2.009 2.009 0 0 0 1.9 1.37h.56v4a5.529 5.529 0 0 1 -.04.71c0 .03-.01.06-.01.09a6.937 6.937 0 0 1 -3.95 5.52z" fill="#ffc477"/><path d="m50 30.32v2a6.958 6.958 0 0 1 -6 0v-2a6.958 6.958 0 0 0 6 0z" fill="#ffb655"/><path d="m55 19a3 3 0 0 1 3 3 3.011 3.011 0 0 1 -3 3 2.8 2.8 0 0 1 -1.05-.2c0-.03.01-.06.01-.09a5.529 5.529 0 0 0 .04-.71v-4z" fill="#ff9811"/><path d="m55 19-1 1h-.56a2.009 2.009 0 0 1 -1.9-1.37l-.54-1.63-1.87 1.4a7.982 7.982 0 0 1 -4.8 1.6h-4.33l-1-1-2-2 1-2-2-4h16a4 4 0 0 1 4 4v3z" fill="#57565c"/><path d="m25 20v3a1 1 0 0 1 -1 1h-14a1 1 0 0 1 -1-1v-3z" fill="#ff9811"/><path d="m11 16h12v4h-12z" fill="#cc7400"/><path d="m25 14v2h-16v-2a4 4 0 0 1 4-4h8a4 4 0 0 1 4 4z" fill="#ff9811"/><path d="m11 16h12v2h-12z" fill="#aa6100"/><path d="m27 16v2h-2v2h-2v-4h2v-2a3.931 3.931 0 0 0 -.36-1.64 3.988 3.988 0 0 1 2.36 3.64z" fill="#ebbf00"/><path d="m25 22h2v3a1 1 0 0 1 -1 1h-14a1 1 0 0 1 -1-1v-1h13a1 1 0 0 0 1-1z" fill="#ebbf00"/><path d="m6 49h52v2h-52z" fill="#754c29"/><path d="m61 44h-1v-3.1a7 7 0 0 0 -4.153-6.394l-4.847-2.155v-1.443a7.956 7.956 0 0 0 2.225-1.908h2.775a2 2 0 0 0 2-2v-2.382a3.95 3.95 0 0 0 -1.141-6.138.982.982 0 0 0 .141-.48v-3a5.006 5.006 0 0 0 -5-5h-16a1 1 0 0 0 -.9 1.447l1.782 3.553-.782 1.553a1 1 0 0 0 .188 1.154l.8.8a3.986 3.986 0 0 0 1.912 7.493c.086 0 .169-.019.255-.024a7.987 7.987 0 0 0 2.089 3.682 7.839 7.839 0 0 0 1.656 1.235v1.458l-4.847 2.155a7 7 0 0 0 -4.153 6.394v3.1h-31a1 1 0 0 0 -1 1v4a1 1 0 0 0 1 1h2v11a1 1 0 0 0 1 1h52a1 1 0 0 0 1-1v-11h2a1 1 0 0 0 1-1v-4a1 1 0 0 0 -1-1zm-3-3.1v3.1h-7.2l-1.525-6.854 2.407.8a.983.983 0 0 0 .318.054 1 1 0 0 0 .97-.758l.411-1.643 1.653.735a5 5 0 0 1 2.966 4.566zm-11-8.9a7.921 7.921 0 0 0 2-.262v.644l-1.236.618h-1.528l-1.236-.618v-.644a7.933 7.933 0 0 0 2 .262zm-.783 3.8.4-.8h.764l.4.8-.781.786zm.191 2.981a.919.919 0 0 0 1.184 0l1.161 5.219h-3.506zm5.118-4.01-.234.936-1.582-.527-.368-.736.683-.341zm2.884-7.771a7.763 7.763 0 0 0 .337-1.024c.085.006.168.024.253.024a3.939 3.939 0 0 0 1-.142v1.142zm.59-3v-3.586l.376-.376a2 2 0 0 1 -.376 3.962zm-3-12a3 3 0 0 1 3 3v2.586l-1.414 1.414h-.145a1 1 0 0 1 -.948-.684l-.544-1.632a1 1 0 0 0 -.651-.638.985.985 0 0 0 -.298-.046 1 1 0 0 0 -.6.2l-1.865 1.4a7.051 7.051 0 0 1 -4.2 1.4h-3.921l-2.2-2.2.678-1.356a1 1 0 0 0 0-.894l-1.274-2.55zm-15 10a2 2 0 0 1 1.624-1.962l.376.376v3.586a2 2 0 0 1 -2-2zm4.031 2.579a4.588 4.588 0 0 1 -.031-.579v-3h3.333a9.057 9.057 0 0 0 5.4-1.8l.756-.567.106.316a2.994 2.994 0 0 0 2.405 2.016v3.035a4.762 4.762 0 0 1 -.035.614 5.9 5.9 0 0 1 -.78 2.386h-5.185v2h3.306a5.969 5.969 0 0 1 -5.884.414 5.853 5.853 0 0 1 -1.665-1.171 6 6 0 0 1 -1.726-3.664zm2.944 9.527.683.341-.368.736-1.582.527-.234-.936zm-7.975 6.794a5 5 0 0 1 2.966-4.566l1.653-.735.411 1.643a1 1 0 0 0 .97.758.983.983 0 0 0 .316-.052l2.407-.8-1.523 6.852h-7.2zm21 19.1h-50v-10h50zm3-12h-56v-2h56z"/><path d="m43 22h2v2h-2z"/><path d="m49 22h2v2h-2z"/><path d="m10 25h14a2 2 0 0 0 2-2v-3a1 1 0 0 0 -1-1h-1v-2h1a1 1 0 0 0 1-1v-2a5.006 5.006 0 0 0 -5-5h-8a5.006 5.006 0 0 0 -5 5v2a1 1 0 0 0 1 1h1v2h-1a1 1 0 0 0 -1 1v3a2 2 0 0 0 2 2zm0-11a3 3 0 0 1 2-2.816v1.816h2v-2h2v2h2v-2h2v2h2v-1.816a3 3 0 0 1 2 2.816v1h-14zm2 3h10v2h-10zm-2 4h14v2h-14z"/><path d="m17 32a15.01 15.01 0 0 0 6.975-1.726l6.783 1.7a1 1 0 0 0 1.161-1.364l-2.338-5.454a14.993 14.993 0 1 0 -12.581 6.844zm0-28a12.988 12.988 0 0 1 10.63 20.468 1 1 0 0 0 -.1.97l1.759 4.1-5.206-1.3a1 1 0 0 0 -.731.1 13 13 0 1 1 -6.352-24.338z"/></g></svg>