<?xml version="1.0" encoding="UTF-8"?>
<svg xmlns="http://www.w3.org/2000/svg" xmlns:xlink="http://www.w3.org/1999/xlink" width="48pt" height="48pt" viewBox="0 0 48 48" version="1.1">
<g id="surface1">
<path style=" stroke:none;fill-rule:nonzero;fill:rgb(90.196078%,91.372549%,92.941176%);fill-opacity:1;" d="M 1.5 6.75 L 1.5 35.25 L 31.5 35.25 C 31.5 33.179688 33.179688 31.5 35.25 31.5 C 37.320312 31.5 39 33.179688 39 35.25 L 42 35.25 L 42 6.75 Z M 1.5 6.75 "/>
<path style=" stroke:none;fill-rule:nonzero;fill:rgb(98.823529%,84.313725%,43.921569%);fill-opacity:1;" d="M 4.5 26.25 L 7.5 26.25 L 7.5 32.25 L 4.5 32.25 Z M 4.5 26.25 "/>
<path style=" stroke:none;fill-rule:nonzero;fill:rgb(98.823529%,84.313725%,43.921569%);fill-opacity:1;" d="M 10.5 27.75 L 13.5 27.75 L 13.5 32.25 L 10.5 32.25 Z M 10.5 27.75 "/>
<path style=" stroke:none;fill-rule:nonzero;fill:rgb(98.823529%,84.313725%,43.921569%);fill-opacity:1;" d="M 16.5 21.75 L 19.5 21.75 L 19.5 32.25 L 16.5 32.25 Z M 16.5 21.75 "/>
<path style=" stroke:none;fill-rule:nonzero;fill:rgb(98.823529%,84.313725%,43.921569%);fill-opacity:1;" d="M 25.5 24.75 L 25.5 29.640625 C 25.035156 30.449219 24.660156 31.328125 24.40625 32.25 L 22.5 32.25 L 22.5 24.75 Z M 25.5 24.75 "/>
<path style=" stroke:none;fill-rule:nonzero;fill:rgb(80%,81.960784%,85.098039%);fill-opacity:1;" d="M 35.25 28.5 C 31.523438 28.5 28.5 31.523438 28.5 35.25 C 28.5 36.480469 28.828125 37.636719 29.40625 38.625 C 30.570312 40.640625 32.753906 42 35.25 42 C 37.746094 42 39.929688 40.640625 41.09375 38.625 C 41.671875 37.636719 42 36.480469 42 35.25 C 42 31.523438 38.976562 28.5 35.25 28.5 Z M 35.25 39 C 33.179688 39 31.5 37.320312 31.5 35.25 C 31.5 33.179688 33.179688 31.5 35.25 31.5 C 37.320312 31.5 39 33.179688 39 35.25 C 39 37.320312 37.320312 39 35.25 39 Z M 35.25 39 "/>
<path style=" stroke:none;fill-rule:nonzero;fill:rgb(98.823529%,84.313725%,43.921569%);fill-opacity:1;" d="M 41.09375 38.625 L 44.992188 40.875 C 43.042969 44.234375 39.414062 46.5 35.25 46.5 C 31.085938 46.5 27.457031 44.234375 25.507812 40.875 L 29.40625 38.625 C 30.570312 40.640625 32.753906 42 35.25 42 C 37.746094 42 39.929688 40.640625 41.09375 38.625 Z M 41.09375 38.625 "/>
<path style=" stroke:none;fill-rule:nonzero;fill:rgb(100%,50.980392%,43.137255%);fill-opacity:1;" d="M 46.5 35.25 C 46.5 37.296875 45.953125 39.226562 44.992188 40.875 L 41.09375 38.625 C 41.671875 37.636719 42 36.480469 42 35.25 C 42 31.523438 38.976562 28.5 35.25 28.5 L 35.25 24 C 37.785156 24 40.125 24.839844 42 26.25 C 44.730469 28.304688 46.5 31.574219 46.5 35.25 Z M 46.5 35.25 "/>
<path style=" stroke:none;fill-rule:nonzero;fill:rgb(70.588235%,86.666667%,49.803922%);fill-opacity:1;" d="M 35.25 24 L 35.25 28.5 C 31.523438 28.5 28.5 31.523438 28.5 35.25 C 28.5 36.480469 28.828125 37.636719 29.40625 38.625 L 25.507812 40.875 C 24.546875 39.226562 24 37.296875 24 35.25 C 24 34.214844 24.140625 33.203125 24.40625 32.25 C 24.660156 31.328125 25.035156 30.449219 25.5 29.640625 C 27.441406 26.265625 31.085938 24 35.25 24 Z M 35.25 24 "/>
<path style=" stroke:none;fill-rule:nonzero;fill:rgb(100%,50.980392%,43.137255%);fill-opacity:1;" d="M 22.058594 16.941406 C 22.335938 17.210938 22.5 17.585938 22.5 18 C 22.5 18.824219 21.824219 19.5 21 19.5 C 20.175781 19.5 19.5 18.824219 19.5 18 C 19.5 17.175781 20.175781 16.5 21 16.5 C 21.414062 16.5 21.789062 16.664062 22.058594 16.941406 Z M 22.058594 16.941406 "/>
<path style=" stroke:none;fill-rule:nonzero;fill:rgb(100%,50.980392%,43.137255%);fill-opacity:1;" d="M 28.808594 12.308594 C 28.539062 12.585938 28.164062 12.75 27.75 12.75 C 27.335938 12.75 26.960938 12.585938 26.691406 12.308594 C 26.414062 12.039062 26.25 11.664062 26.25 11.25 C 26.25 10.425781 26.925781 9.75 27.75 9.75 C 28.574219 9.75 29.25 10.425781 29.25 11.25 C 29.25 11.664062 29.085938 12.039062 28.808594 12.308594 Z M 28.808594 12.308594 "/>
<path style=" stroke:none;fill-rule:nonzero;fill:rgb(100%,50.980392%,43.137255%);fill-opacity:1;" d="M 33.308594 14.691406 C 33.585938 14.960938 33.75 15.335938 33.75 15.75 C 33.75 16.574219 33.074219 17.25 32.25 17.25 C 31.425781 17.25 30.75 16.574219 30.75 15.75 C 30.75 15.335938 30.914062 14.960938 31.191406 14.691406 C 31.460938 14.414062 31.835938 14.25 32.25 14.25 C 32.664062 14.25 33.039062 14.414062 33.308594 14.691406 Z M 33.308594 14.691406 "/>
<path style=" stroke:none;fill-rule:nonzero;fill:rgb(100%,50.980392%,43.137255%);fill-opacity:1;" d="M 42 1.5 C 44.484375 1.5 46.5 3.515625 46.5 6 C 46.5 8.484375 44.484375 10.5 42 10.5 C 40.753906 10.5 39.628906 9.996094 38.820312 9.179688 C 38.175781 8.535156 37.726562 7.695312 37.566406 6.75 C 37.523438 6.511719 37.5 6.253906 37.5 6 C 37.5 3.515625 39.515625 1.5 42 1.5 Z M 42 1.5 "/>
<path style=" stroke:none;fill-rule:nonzero;fill:rgb(0%,0%,0%);fill-opacity:1;" d="M 42.75 25.898438 L 42.75 11.191406 C 45.289062 10.824219 47.25 8.640625 47.25 6 C 47.25 3.105469 44.894531 0.75 42 0.75 C 39.105469 0.75 36.75 3.105469 36.75 6 L 0.75 6 L 0.75 36 L 23.289062 36 C 23.679688 42.265625 28.886719 47.25 35.25 47.25 C 41.867188 47.25 47.25 41.867188 47.25 35.25 C 47.25 31.472656 45.488281 28.097656 42.75 25.898438 Z M 42 2.25 C 44.066406 2.25 45.75 3.933594 45.75 6 C 45.75 8.066406 44.066406 9.75 42 9.75 C 39.933594 9.75 38.25 8.066406 38.25 6 C 38.25 3.933594 39.933594 2.25 42 2.25 Z M 2.25 7.5 L 36.972656 7.5 C 37.152344 8.097656 37.433594 8.648438 37.800781 9.140625 L 33.214844 13.726562 C 32.921875 13.585938 32.597656 13.5 32.25 13.5 C 31.902344 13.5 31.578125 13.585938 31.285156 13.726562 L 29.773438 12.214844 C 29.914062 11.921875 30 11.597656 30 11.25 C 30 10.007812 28.992188 9 27.75 9 C 26.507812 9 25.5 10.007812 25.5 11.25 C 25.5 11.597656 25.585938 11.921875 25.726562 12.214844 L 21.964844 15.976562 C 21.671875 15.835938 21.347656 15.75 21 15.75 C 19.757812 15.75 18.75 16.757812 18.75 18 C 18.75 19.242188 19.757812 20.25 21 20.25 C 22.242188 20.25 23.25 19.242188 23.25 18 C 23.25 17.652344 23.164062 17.328125 23.023438 17.035156 L 26.785156 13.273438 C 27.078125 13.414062 27.402344 13.5 27.75 13.5 C 28.097656 13.5 28.421875 13.414062 28.714844 13.273438 L 30.226562 14.785156 C 30.085938 15.078125 30 15.402344 30 15.75 C 30 16.992188 31.007812 18 32.25 18 C 33.492188 18 34.5 16.992188 34.5 15.75 C 34.5 15.402344 34.414062 15.078125 34.273438 14.785156 L 38.863281 10.199219 C 39.546875 10.714844 40.363281 11.0625 41.25 11.191406 L 41.25 24.875 C 39.480469 23.847656 37.4375 23.25 35.25 23.25 C 31.664062 23.25 28.449219 24.839844 26.25 27.339844 L 26.25 24 L 21.75 24 L 21.75 33 L 23.46875 33 C 23.375 33.488281 23.320312 33.992188 23.289062 34.5 L 2.25 34.5 Z M 32.25 15 C 32.664062 15 33 15.335938 33 15.75 C 33 16.164062 32.664062 16.5 32.25 16.5 C 31.835938 16.5 31.5 16.164062 31.5 15.75 C 31.5 15.335938 31.835938 15 32.25 15 Z M 27 11.25 C 27 10.835938 27.335938 10.5 27.75 10.5 C 28.164062 10.5 28.5 10.835938 28.5 11.25 C 28.5 11.664062 28.164062 12 27.75 12 C 27.335938 12 27 11.664062 27 11.25 Z M 21.75 18 C 21.75 18.414062 21.414062 18.75 21 18.75 C 20.585938 18.75 20.25 18.414062 20.25 18 C 20.25 17.585938 20.585938 17.25 21 17.25 C 21.414062 17.25 21.75 17.585938 21.75 18 Z M 35.25 41.25 C 31.941406 41.25 29.25 38.558594 29.25 35.25 C 29.25 31.941406 31.941406 29.25 35.25 29.25 C 38.558594 29.25 41.25 31.941406 41.25 35.25 C 41.25 38.558594 38.558594 41.25 35.25 41.25 Z M 24.75 29.453125 C 24.390625 30.101562 24.09375 30.785156 23.859375 31.5 L 23.25 31.5 L 23.25 25.5 L 24.75 25.5 Z M 34.5 24.789062 L 34.5 27.789062 C 30.714844 28.167969 27.75 31.367188 27.75 35.25 C 27.75 36.347656 27.992188 37.386719 28.417969 38.328125 L 25.816406 39.832031 C 25.140625 38.445312 24.75 36.894531 24.75 35.25 C 24.75 29.714844 29.058594 25.175781 34.5 24.789062 Z M 35.25 45.75 C 31.640625 45.75 28.449219 43.917969 26.558594 41.132812 L 29.171875 39.625 C 30.535156 41.515625 32.746094 42.75 35.25 42.75 C 37.753906 42.75 39.964844 41.515625 41.328125 39.625 L 43.941406 41.132812 C 42.050781 43.917969 38.859375 45.75 35.25 45.75 Z M 44.683594 39.832031 L 42.082031 38.328125 C 42.507812 37.386719 42.75 36.347656 42.75 35.25 C 42.75 31.367188 39.785156 28.164062 36 27.789062 L 36 24.789062 C 41.441406 25.175781 45.75 29.714844 45.75 35.25 C 45.75 36.894531 45.359375 38.445312 44.683594 39.832031 Z M 44.683594 39.832031 "/>
<path style=" stroke:none;fill-rule:nonzero;fill:rgb(0%,0%,0%);fill-opacity:1;" d="M 35.25 30.75 C 32.769531 30.75 30.75 32.769531 30.75 35.25 C 30.75 37.730469 32.769531 39.75 35.25 39.75 C 37.730469 39.75 39.75 37.730469 39.75 35.25 C 39.75 32.769531 37.730469 30.75 35.25 30.75 Z M 35.25 38.25 C 33.59375 38.25 32.25 36.90625 32.25 35.25 C 32.25 33.59375 33.59375 32.25 35.25 32.25 C 36.90625 32.25 38.25 33.59375 38.25 35.25 C 38.25 36.90625 36.90625 38.25 35.25 38.25 Z M 35.25 38.25 "/>
<path style=" stroke:none;fill-rule:nonzero;fill:rgb(0%,0%,0%);fill-opacity:1;" d="M 3.75 9 L 5.25 9 L 5.25 10.5 L 3.75 10.5 Z M 3.75 9 "/>
<path style=" stroke:none;fill-rule:nonzero;fill:rgb(0%,0%,0%);fill-opacity:1;" d="M 6.75 9 L 17.25 9 L 17.25 10.5 L 6.75 10.5 Z M 6.75 9 "/>
<path style=" stroke:none;fill-rule:nonzero;fill:rgb(0%,0%,0%);fill-opacity:1;" d="M 3.75 12 L 5.25 12 L 5.25 13.5 L 3.75 13.5 Z M 3.75 12 "/>
<path style=" stroke:none;fill-rule:nonzero;fill:rgb(0%,0%,0%);fill-opacity:1;" d="M 6.75 12 L 17.25 12 L 17.25 13.5 L 6.75 13.5 Z M 6.75 12 "/>
<path style=" stroke:none;fill-rule:nonzero;fill:rgb(0%,0%,0%);fill-opacity:1;" d="M 3.75 15 L 5.25 15 L 5.25 16.5 L 3.75 16.5 Z M 3.75 15 "/>
<path style=" stroke:none;fill-rule:nonzero;fill:rgb(0%,0%,0%);fill-opacity:1;" d="M 6.75 15 L 17.25 15 L 17.25 16.5 L 6.75 16.5 Z M 6.75 15 "/>
<path style=" stroke:none;fill-rule:nonzero;fill:rgb(0%,0%,0%);fill-opacity:1;" d="M 3.75 18 L 5.25 18 L 5.25 19.5 L 3.75 19.5 Z M 3.75 18 "/>
<path style=" stroke:none;fill-rule:nonzero;fill:rgb(0%,0%,0%);fill-opacity:1;" d="M 6.75 18 L 17.25 18 L 17.25 19.5 L 6.75 19.5 Z M 6.75 18 "/>
<path style=" stroke:none;fill-rule:nonzero;fill:rgb(0%,0%,0%);fill-opacity:1;" d="M 3.75 33 L 8.25 33 L 8.25 25.5 L 3.75 25.5 Z M 5.25 27 L 6.75 27 L 6.75 31.5 L 5.25 31.5 Z M 5.25 27 "/>
<path style=" stroke:none;fill-rule:nonzero;fill:rgb(0%,0%,0%);fill-opacity:1;" d="M 9.75 33 L 14.25 33 L 14.25 27 L 9.75 27 Z M 11.25 28.5 L 12.75 28.5 L 12.75 31.5 L 11.25 31.5 Z M 11.25 28.5 "/>
<path style=" stroke:none;fill-rule:nonzero;fill:rgb(0%,0%,0%);fill-opacity:1;" d="M 15.75 33 L 20.25 33 L 20.25 21 L 15.75 21 Z M 17.25 22.5 L 18.75 22.5 L 18.75 31.5 L 17.25 31.5 Z M 17.25 22.5 "/>
</g>
</svg>
