<?xml version="1.0" encoding="UTF-8"?>
<svg xmlns="http://www.w3.org/2000/svg" xmlns:xlink="http://www.w3.org/1999/xlink" width="48pt" height="48pt" viewBox="0 0 48 48" version="1.1">
<g id="surface1">
<path style=" stroke:none;fill-rule:nonzero;fill:rgb(41.176471%,29.411765%,29.411765%);fill-opacity:1;" d="M 12.726562 23.625 C 12.519531 20.726562 10.371094 18.363281 7.464844 18.363281 C 4.5625 18.363281 2.410156 20.726562 2.207031 23.625 C 2.082031 25.351562 2.207031 28.132812 1.453125 29.636719 C 1.453125 29.636719 2.207031 31.140625 4.976562 31.894531 L 9.972656 31.890625 C 12.726562 31.140625 13.480469 29.636719 13.480469 29.636719 C 12.726562 28.132812 12.851562 25.351562 12.726562 23.625 Z M 12.726562 23.625 "/>
<path style=" stroke:none;fill-rule:nonzero;fill:rgb(35.294118%,25.490196%,27.45098%);fill-opacity:1;" d="M 6.714844 23.625 C 3.820312 22.175781 4.414062 19.339844 6.476562 18.460938 C 4.085938 18.929688 2.386719 21.066406 2.207031 23.625 C 2.082031 25.351562 2.207031 28.132812 1.453125 29.636719 C 1.453125 29.636719 2.207031 31.140625 4.976562 31.894531 L 7.351562 31.890625 Z M 6.714844 23.625 "/>
<path style=" stroke:none;fill-rule:nonzero;fill:rgb(90.196078%,68.627451%,47.058824%);fill-opacity:1;" d="M 12.984375 33.699219 L 10.550781 32.484375 C 10.042969 32.230469 9.722656 31.707031 9.722656 31.140625 L 9.722656 28.882812 L 5.210938 28.882812 L 5.210938 31.140625 C 5.210938 31.707031 4.890625 32.230469 4.382812 32.484375 L 1.949219 33.699219 C 1.1875 34.082031 0.703125 34.863281 0.703125 35.714844 L 0.703125 40.910156 L 14.230469 40.910156 L 14.230469 35.714844 C 14.230469 34.863281 13.746094 34.082031 12.984375 33.699219 Z M 12.984375 33.699219 "/>
<path style=" stroke:none;fill-rule:nonzero;fill:rgb(83.529412%,86.27451%,92.941176%);fill-opacity:1;" d="M 14.230469 35.714844 C 14.230469 34.863281 13.746094 34.082031 12.984375 33.699219 L 10.550781 32.484375 C 10.410156 32.414062 10.289062 32.320312 10.179688 32.214844 L 9.320312 33.175781 C 8.300781 34.308594 6.632812 34.308594 5.613281 33.175781 L 4.753906 32.214844 C 4.644531 32.320312 4.519531 32.414062 4.382812 32.484375 L 1.949219 33.699219 C 1.1875 34.082031 0.703125 34.863281 0.703125 35.714844 L 0.703125 40.910156 L 14.230469 40.910156 Z M 14.230469 35.714844 "/>
<path style=" stroke:none;fill-rule:nonzero;fill:rgb(94.117647%,75.294118%,52.941176%);fill-opacity:1;" d="M 7.464844 30.386719 C 5.746094 30.386719 4.246094 29.421875 3.488281 28.003906 C 2.972656 27.039062 3.308594 25.828125 4.203125 25.199219 C 4.375 25.078125 4.550781 24.9375 4.726562 24.78125 C 5.265625 24.304688 5.578125 23.796875 5.757812 23.425781 C 5.910156 23.109375 6.257812 22.929688 6.597656 23.015625 C 9.253906 23.691406 11.058594 25.074219 11.707031 25.636719 C 11.878906 25.785156 11.980469 26.003906 11.960938 26.230469 C 11.78125 28.554688 9.839844 30.386719 7.464844 30.386719 Z M 7.464844 30.386719 "/>
<path style=" stroke:none;fill-rule:nonzero;fill:rgb(90.196078%,68.627451%,47.058824%);fill-opacity:1;" d="M 11.707031 25.632812 C 11.054688 25.074219 9.253906 23.695312 6.601562 23.019531 C 6.257812 22.929688 5.90625 23.109375 5.753906 23.429688 C 5.621094 23.710938 5.398438 24.066406 5.066406 24.433594 C 4.964844 24.550781 4.855469 24.667969 4.726562 24.78125 C 4.558594 24.933594 4.390625 25.066406 4.226562 25.183594 C 3.164062 25.914062 3.003906 27.261719 3.65625 28.285156 C 4.339844 29.359375 5.46875 30.125 6.78125 30.324219 C 5.882812 29.710938 5.210938 28.882812 5.210938 27.382812 L 5.210938 26.800781 C 5.382812 26.675781 5.554688 26.550781 5.726562 26.394531 C 6.144531 26.023438 6.511719 25.589844 6.800781 25.128906 C 8.828125 25.757812 10.199219 26.8125 10.71875 27.257812 C 10.863281 27.382812 11.0625 27.558594 11.476562 27.949219 C 11.738281 27.527344 11.925781 26.714844 11.960938 26.230469 C 11.980469 26.003906 11.878906 25.78125 11.707031 25.632812 Z M 11.707031 25.632812 "/>
<path style=" stroke:none;fill-rule:nonzero;fill:rgb(78.039216%,81.176471%,88.627451%);fill-opacity:1;" d="M 1.160156 34.363281 C 0.871094 34.746094 0.703125 35.21875 0.703125 35.714844 L 0.703125 40.910156 L 3.710938 40.910156 L 3.710938 37.121094 C 3.710938 36.664062 3.5 36.234375 3.144531 35.949219 Z M 1.160156 34.363281 "/>
<path style=" stroke:none;fill-rule:nonzero;fill:rgb(78.039216%,81.176471%,88.627451%);fill-opacity:1;" d="M 13.773438 34.363281 C 14.0625 34.746094 14.230469 35.21875 14.230469 35.714844 L 14.230469 40.910156 L 11.222656 40.910156 L 11.222656 37.121094 C 11.222656 36.664062 11.433594 36.234375 11.789062 35.949219 Z M 13.773438 34.363281 "/>
<path style=" stroke:none;fill-rule:nonzero;fill:rgb(35.294118%,25.490196%,27.45098%);fill-opacity:1;" d="M 34.519531 21.371094 L 34.519531 21.898438 C 34.519531 22.542969 34.625 23.183594 34.828125 23.796875 L 36.023438 27.382812 L 38.277344 27.382812 L 38.277344 19.113281 L 36.777344 19.113281 C 35.53125 19.113281 34.519531 20.125 34.519531 21.371094 Z M 34.519531 21.371094 "/>
<path style=" stroke:none;fill-rule:nonzero;fill:rgb(41.176471%,29.411765%,29.411765%);fill-opacity:1;" d="M 44.867188 22.726562 L 43.539062 27.382812 L 37.527344 22.121094 C 36.695312 22.121094 36.023438 21.449219 36.023438 20.617188 C 36.023438 19.371094 37.035156 18.363281 38.277344 18.363281 L 45.042969 18.363281 L 45.042969 21.488281 C 45.042969 21.910156 44.984375 22.324219 44.867188 22.726562 Z M 44.867188 22.726562 "/>
<path style=" stroke:none;fill-rule:nonzero;fill:rgb(90.196078%,68.627451%,47.058824%);fill-opacity:1;" d="M 37.527344 29.636719 L 42.035156 29.636719 L 42.035156 34.144531 L 37.527344 34.144531 Z M 37.527344 29.636719 "/>
<path style=" stroke:none;fill-rule:nonzero;fill:rgb(83.529412%,86.27451%,92.941176%);fill-opacity:1;" d="M 45.660156 32.496094 L 42.035156 31.460938 L 39.78125 34.144531 L 37.527344 31.460938 L 33.902344 32.496094 C 32.933594 32.773438 32.265625 33.65625 32.265625 34.664062 L 32.265625 40.910156 L 47.296875 40.910156 L 47.296875 34.664062 C 47.296875 33.65625 46.628906 32.773438 45.660156 32.496094 Z M 45.660156 32.496094 "/>
<path style=" stroke:none;fill-rule:nonzero;fill:rgb(94.117647%,75.294118%,52.941176%);fill-opacity:1;" d="M 39.78125 30.386719 C 37.292969 30.386719 35.273438 28.367188 35.273438 25.878906 C 35.273438 24.917969 35.65625 23.992188 36.335938 23.3125 L 37.074219 22.574219 C 37.363281 22.285156 37.757812 22.117188 38.167969 22.132812 C 40.570312 22.207031 42.695312 22.722656 43.859375 23.855469 C 44.140625 24.132812 44.289062 24.523438 44.289062 24.921875 L 44.289062 25.878906 C 44.289062 28.367188 42.273438 30.386719 39.78125 30.386719 Z M 39.78125 30.386719 "/>
<path style=" stroke:none;fill-rule:nonzero;fill:rgb(90.196078%,68.627451%,47.058824%);fill-opacity:1;" d="M 37.527344 25.878906 C 37.527344 25.011719 38.253906 24.324219 39.121094 24.378906 C 40.636719 24.472656 42.890625 24.726562 44.269531 25.390625 C 44.226562 25.074219 44.089844 24.082031 43.859375 23.855469 C 42.695312 22.722656 40.570312 22.207031 38.167969 22.132812 C 37.757812 22.117188 37.363281 22.285156 37.074219 22.574219 L 36.335938 23.3125 C 35.65625 23.992188 35.273438 24.917969 35.273438 25.878906 C 35.273438 27.933594 36.652344 29.667969 38.53125 30.207031 C 37.90625 29.433594 37.527344 28.453125 37.527344 27.382812 Z M 37.527344 25.878906 "/>
<path style=" stroke:none;fill-rule:nonzero;fill:rgb(78.039216%,81.176471%,88.627451%);fill-opacity:1;" d="M 44.289062 36.902344 C 44.289062 36.304688 44.527344 35.730469 44.949219 35.308594 L 46.886719 33.375 C 47.144531 33.742188 47.296875 34.1875 47.296875 34.664062 L 47.296875 40.910156 L 44.289062 40.910156 Z M 44.289062 36.902344 "/>
<path style=" stroke:none;fill-rule:nonzero;fill:rgb(100%,31.372549%,49.019608%);fill-opacity:1;" d="M 34.796875 32.675781 L 28.507812 30.386719 L 24 31.890625 L 19.492188 30.386719 L 13.203125 32.675781 C 12.015625 33.105469 11.222656 34.234375 11.222656 35.5 L 11.222656 40.910156 L 36.777344 40.910156 L 36.777344 35.5 C 36.777344 34.234375 35.984375 33.105469 34.796875 32.675781 Z M 34.796875 32.675781 "/>
<path style=" stroke:none;fill-rule:nonzero;fill:rgb(82.352941%,23.529412%,41.176471%);fill-opacity:1;" d="M 35.96875 33.449219 C 36.472656 33.996094 36.777344 34.722656 36.777344 35.5 L 36.777344 40.910156 L 32.265625 40.910156 L 32.265625 38.398438 C 32.265625 37.597656 32.582031 36.835938 33.148438 36.269531 Z M 35.96875 33.449219 "/>
<path style=" stroke:none;fill-rule:nonzero;fill:rgb(35.294118%,25.490196%,27.45098%);fill-opacity:1;" d="M 32.265625 14.890625 L 32.265625 8.59375 C 32.265625 7.765625 31.59375 7.089844 30.761719 7.089844 L 21.746094 7.089844 C 18.425781 7.089844 15.734375 9.78125 15.734375 13.101562 L 15.734375 14.890625 C 15.734375 15.695312 15.863281 16.5 16.117188 17.265625 L 16.367188 18.015625 C 16.445312 18.246094 16.484375 18.488281 16.484375 18.730469 L 16.484375 19.113281 L 31.515625 19.113281 L 31.515625 18.730469 C 31.515625 18.488281 31.554688 18.246094 31.628906 18.015625 L 31.882812 17.265625 C 32.136719 16.5 32.265625 15.695312 32.265625 14.890625 Z M 32.265625 14.890625 "/>
<path style=" stroke:none;fill-rule:nonzero;fill:rgb(41.176471%,29.411765%,29.411765%);fill-opacity:1;" d="M 19.492188 10.144531 C 19.492188 11.828125 20.859375 13.195312 22.542969 13.195312 L 22.964844 13.195312 L 23.171875 19.113281 L 31.515625 19.113281 L 31.515625 18.730469 C 31.515625 18.488281 31.554688 18.246094 31.632812 18.015625 L 31.882812 17.265625 C 32.136719 16.5 32.265625 15.695312 32.265625 14.890625 L 32.265625 8.59375 C 32.265625 7.761719 31.59375 7.089844 30.765625 7.089844 L 22.542969 7.089844 C 20.859375 7.089844 19.492188 8.457031 19.492188 10.144531 Z M 19.492188 10.144531 "/>
<path style=" stroke:none;fill-rule:nonzero;fill:rgb(90.196078%,68.627451%,47.058824%);fill-opacity:1;" d="M 19.492188 25.125 L 28.507812 25.125 L 28.507812 31.890625 L 19.492188 31.890625 Z M 19.492188 25.125 "/>
<path style=" stroke:none;fill-rule:nonzero;fill:rgb(82.352941%,60.784314%,43.137255%);fill-opacity:1;" d="M 19.492188 28.527344 C 20.839844 29.230469 22.371094 29.636719 24 29.636719 C 25.628906 29.636719 27.160156 29.230469 28.507812 28.527344 L 28.507812 25.128906 L 19.492188 25.128906 Z M 19.492188 28.527344 "/>
<path style=" stroke:none;fill-rule:nonzero;fill:rgb(82.352941%,23.529412%,41.176471%);fill-opacity:1;" d="M 24 31.890625 L 21.601562 34.289062 C 21.28125 34.609375 20.75 34.574219 20.472656 34.210938 L 17.988281 30.9375 L 18.636719 29.566406 C 18.828125 29.160156 19.332031 29.011719 19.710938 29.25 Z M 24 31.890625 "/>
<path style=" stroke:none;fill-rule:nonzero;fill:rgb(82.352941%,23.529412%,41.176471%);fill-opacity:1;" d="M 24 31.890625 L 26.398438 34.289062 C 26.71875 34.609375 27.25 34.574219 27.527344 34.210938 L 30.011719 30.9375 L 29.363281 29.566406 C 29.171875 29.160156 28.667969 29.011719 28.289062 29.25 Z M 24 31.890625 "/>
<path style=" stroke:none;fill-rule:nonzero;fill:rgb(94.117647%,75.294118%,52.941176%);fill-opacity:1;" d="M 24 27.382812 C 19.847656 27.382812 16.484375 24.015625 16.484375 19.867188 L 16.484375 19.113281 L 17.734375 18.28125 C 18.363281 17.863281 18.738281 17.160156 18.738281 16.40625 L 18.738281 13.855469 C 18.738281 13.855469 24.75 11.601562 29.261719 15.359375 C 29.261719 15.359375 29.261719 15.871094 29.261719 16.40625 C 29.261719 17.160156 29.636719 17.863281 30.265625 18.28125 L 31.515625 19.113281 L 31.515625 19.867188 C 31.515625 24.015625 28.152344 27.382812 24 27.382812 Z M 24 27.382812 "/>
<path style=" stroke:none;fill-rule:nonzero;fill:rgb(82.352941%,23.529412%,41.176471%);fill-opacity:1;" d="M 12.03125 33.449219 C 11.527344 33.996094 11.222656 34.722656 11.222656 35.5 L 11.222656 40.910156 L 15.734375 40.910156 L 15.734375 38.398438 C 15.734375 37.597656 15.417969 36.835938 14.851562 36.269531 Z M 12.03125 33.449219 "/>
<path style=" stroke:none;fill-rule:nonzero;fill:rgb(90.196078%,68.627451%,47.058824%);fill-opacity:1;" d="M 22.316406 15.660156 C 23.949219 15.457031 26.808594 15.339844 29.261719 16.40625 C 29.261719 16.105469 29.261719 15.359375 29.261719 15.359375 C 24.75 11.601562 18.738281 13.855469 18.738281 13.855469 L 18.738281 16.40625 C 18.738281 17.160156 18.363281 17.863281 17.734375 18.28125 L 16.484375 19.113281 L 16.484375 19.867188 C 16.484375 23.707031 19.371094 26.871094 23.09375 27.320312 C 21.796875 25.972656 20.992188 24.140625 20.992188 22.121094 L 20.992188 17.152344 C 20.992188 16.390625 21.558594 15.753906 22.316406 15.660156 Z M 22.316406 15.660156 "/>
<path style=" stroke:none;fill-rule:nonzero;fill:rgb(0%,0%,0%);fill-opacity:1;" d="M 41.71875 23.5 C 41.820312 23.550781 41.929688 23.574219 42.035156 23.574219 C 42.292969 23.574219 42.539062 23.433594 42.664062 23.1875 C 42.835938 22.839844 42.695312 22.417969 42.347656 22.242188 C 40.714844 21.425781 37.652344 21.417969 37.523438 21.417969 C 37.136719 21.417969 36.820312 21.730469 36.820312 22.121094 C 36.820312 22.507812 37.136719 22.824219 37.523438 22.824219 C 38.3125 22.824219 40.609375 22.945312 41.71875 23.5 Z M 41.71875 23.5 "/>
<path style=" stroke:none;fill-rule:nonzero;fill:rgb(0%,0%,0%);fill-opacity:1;" d="M 45.855469 32.253906 L 42.949219 31.425781 C 42.824219 31.386719 42.738281 31.273438 42.738281 31.140625 L 42.738281 30.171875 C 42.972656 30.007812 43.199219 29.824219 43.410156 29.621094 C 44.429688 28.628906 44.992188 27.300781 44.992188 25.878906 L 44.992188 24.542969 L 45.273438 23.980469 C 45.582031 23.363281 45.746094 22.671875 45.746094 21.984375 L 45.746094 18.359375 C 45.746094 17.972656 45.429688 17.65625 45.042969 17.65625 L 38.273438 17.65625 C 35.816406 17.65625 33.8125 19.660156 33.8125 22.121094 L 33.8125 22.164062 C 33.8125 22.734375 33.949219 23.308594 34.203125 23.820312 L 34.566406 24.542969 L 34.566406 25.691406 C 34.566406 27.511719 35.460938 29.144531 36.820312 30.125 L 36.820312 31.140625 C 36.820312 31.296875 36.820312 31.363281 36.238281 31.527344 L 34.824219 31.933594 L 30.722656 30.445312 C 30.738281 30.25 30.671875 30.054688 30.53125 29.90625 L 29.222656 28.527344 L 29.222656 26.21875 C 29.359375 26.105469 29.496094 25.988281 29.628906 25.863281 C 31.28125 24.316406 32.230469 22.128906 32.230469 19.863281 L 32.230469 18.019531 C 32.730469 16.933594 32.980469 15.785156 32.980469 14.601562 L 32.980469 7.085938 C 32.980469 6.695312 32.667969 6.382812 32.277344 6.382812 L 21.753906 6.382812 C 18.050781 6.382812 15.035156 9.394531 15.035156 13.097656 L 15.035156 14.601562 C 15.035156 15.785156 15.289062 16.933594 15.789062 18.019531 L 15.789062 19.609375 C 15.789062 22.234375 16.957031 24.605469 18.796875 26.164062 L 18.796875 28.527344 L 17.484375 29.90625 C 17.34375 30.054688 17.277344 30.25 17.292969 30.445312 L 12.96875 32.015625 C 12.652344 32.128906 12.363281 32.285156 12.097656 32.472656 L 11.417969 32.132812 C 13.441406 31.253906 14.082031 30.015625 14.113281 29.953125 C 14.210938 29.753906 14.210938 29.523438 14.113281 29.324219 C 13.605469 28.308594 13.542969 26.453125 13.496094 24.957031 C 13.476562 24.460938 13.460938 23.992188 13.433594 23.574219 C 13.195312 20.203125 10.628906 17.65625 7.46875 17.65625 C 4.308594 17.65625 1.746094 20.203125 1.503906 23.574219 C 1.476562 23.992188 1.460938 24.460938 1.445312 24.957031 C 1.394531 26.453125 1.332031 28.308594 0.824219 29.324219 C 0.726562 29.523438 0.726562 29.753906 0.824219 29.953125 C 0.855469 30.015625 1.496094 31.25 3.523438 32.128906 L 1.636719 33.074219 C 0.625 33.578125 0 34.59375 0 35.71875 L 0 40.914062 C 0 41.304688 0.316406 41.617188 0.703125 41.617188 C 1.089844 41.617188 1.40625 41.304688 1.40625 40.914062 L 1.40625 35.71875 C 1.40625 35.128906 1.734375 34.597656 2.265625 34.332031 L 4.613281 33.15625 L 5.429688 33.933594 C 6.003906 34.476562 6.734375 34.75 7.46875 34.75 C 8.203125 34.75 8.9375 34.476562 9.507812 33.933594 L 10.324219 33.15625 L 11.089844 33.539062 C 10.730469 34.117188 10.523438 34.792969 10.523438 35.503906 L 10.523438 40.914062 C 10.523438 41.304688 10.839844 41.617188 11.226562 41.617188 C 11.617188 41.617188 11.929688 41.304688 11.929688 40.914062 L 11.929688 35.503906 C 11.929688 34.539062 12.539062 33.667969 13.449219 33.339844 L 18.007812 31.679688 L 19.90625 34.527344 C 20.152344 34.890625 20.539062 35.125 20.976562 35.167969 C 21.023438 35.171875 21.070312 35.175781 21.121094 35.175781 C 21.503906 35.175781 21.871094 35.023438 22.148438 34.75 L 23.304688 33.589844 L 23.304688 40.914062 C 23.304688 41.304688 23.621094 41.617188 24.007812 41.617188 C 24.398438 41.617188 24.710938 41.304688 24.710938 40.914062 L 24.710938 33.589844 L 25.871094 34.75 C 26.144531 35.023438 26.511719 35.175781 26.898438 35.175781 C 26.945312 35.175781 26.992188 35.171875 27.042969 35.167969 C 27.476562 35.125 27.867188 34.890625 28.109375 34.527344 L 30.007812 31.679688 L 34.570312 33.339844 C 35.476562 33.667969 36.085938 34.539062 36.085938 35.503906 L 36.085938 40.914062 C 36.085938 41.304688 36.402344 41.617188 36.789062 41.617188 C 37.175781 41.617188 37.492188 41.304688 37.492188 40.914062 L 37.492188 35.503906 C 37.492188 34.527344 37.105469 33.609375 36.453125 32.929688 L 36.625 32.882812 C 36.800781 32.832031 37.039062 32.761719 37.28125 32.644531 L 39.074219 34.441406 L 39.074219 40.914062 C 39.074219 41.304688 39.390625 41.617188 39.777344 41.617188 C 40.167969 41.617188 40.480469 41.304688 40.480469 40.914062 L 40.480469 34.441406 L 42.265625 32.65625 C 42.359375 32.707031 42.460938 32.746094 42.5625 32.777344 L 45.46875 33.605469 C 46.128906 33.796875 46.59375 34.410156 46.59375 35.097656 L 46.59375 40.914062 C 46.59375 41.304688 46.910156 41.617188 47.296875 41.617188 C 47.683594 41.617188 48 41.304688 48 40.914062 L 48 35.097656 C 48 33.785156 47.117188 32.613281 45.855469 32.253906 Z M 10.425781 31.015625 L 10.429688 30.175781 C 11.246094 29.613281 11.894531 28.820312 12.285156 27.882812 C 12.367188 28.488281 12.492188 29.0625 12.683594 29.5625 C 12.40625 29.90625 11.742188 30.542969 10.425781 31.015625 Z M 2.90625 23.671875 C 2.996094 22.410156 3.503906 21.246094 4.328125 20.394531 C 5.164062 19.539062 6.277344 19.0625 7.46875 19.0625 C 8.660156 19.0625 9.773438 19.539062 10.609375 20.394531 C 11.4375 21.246094 11.941406 22.410156 12.03125 23.671875 C 12.058594 24.066406 12.074219 24.523438 12.089844 25.003906 C 12.089844 25.046875 12.09375 25.089844 12.09375 25.128906 C 11.328125 23.953125 10.148438 23.082031 8.621094 22.59375 C 7.210938 22.140625 5.996094 22.167969 5.945312 22.167969 C 5.761719 22.175781 5.585938 22.25 5.460938 22.382812 L 4.191406 23.699219 C 3.921875 23.980469 3.929688 24.425781 4.210938 24.695312 C 4.488281 24.964844 4.933594 24.957031 5.203125 24.675781 L 6.257812 23.582031 C 7.167969 23.625 10.09375 23.964844 11.230469 26.46875 C 10.945312 28.316406 9.359375 29.6875 7.46875 29.6875 C 5.371094 29.6875 3.660156 27.980469 3.660156 25.878906 C 3.660156 25.492188 3.347656 25.175781 2.957031 25.175781 C 2.917969 25.175781 2.882812 25.179688 2.84375 25.1875 C 2.84375 25.125 2.847656 25.066406 2.847656 25.003906 C 2.863281 24.523438 2.878906 24.066406 2.90625 23.671875 Z M 2.253906 29.5625 C 2.445312 29.0625 2.570312 28.488281 2.65625 27.878906 C 3.042969 28.808594 3.691406 29.601562 4.511719 30.167969 L 4.511719 31.011719 C 3.195312 30.539062 2.535156 29.90625 2.253906 29.5625 Z M 6.398438 32.914062 L 5.746094 32.292969 C 5.855469 32.085938 5.917969 31.851562 5.917969 31.605469 L 5.917969 30.855469 C 6.40625 31.011719 6.929688 31.09375 7.46875 31.09375 C 8.007812 31.09375 8.53125 31.011719 9.023438 30.859375 L 9.023438 31.605469 C 9.023438 31.851562 9.082031 32.085938 9.191406 32.292969 L 8.539062 32.914062 C 7.9375 33.484375 7 33.484375 6.398438 32.914062 Z M 17.195312 19.605469 L 17.195312 17.863281 C 17.195312 17.757812 17.171875 17.652344 17.125 17.558594 C 16.671875 16.621094 16.441406 15.625 16.441406 14.601562 L 16.441406 13.097656 C 16.441406 10.171875 18.824219 7.789062 21.753906 7.789062 L 31.574219 7.789062 L 31.574219 14.601562 C 31.574219 15.625 31.347656 16.621094 30.894531 17.558594 C 30.847656 17.652344 30.824219 17.757812 30.824219 17.863281 L 30.824219 19.863281 C 30.824219 21.769531 30.058594 23.535156 28.667969 24.839844 C 28.496094 25 28.316406 25.152344 28.128906 25.296875 C 28.125 25.296875 28.121094 25.300781 28.117188 25.304688 C 26.8125 26.292969 25.21875 26.773438 23.554688 26.664062 C 19.988281 26.433594 17.195312 23.335938 17.195312 19.605469 Z M 23.464844 28.066406 C 23.648438 28.082031 23.832031 28.085938 24.015625 28.085938 C 25.359375 28.085938 26.65625 27.765625 27.816406 27.15625 L 27.816406 28.4375 L 24.007812 31.042969 L 20.203125 28.4375 L 20.203125 27.125 C 21.1875 27.660156 22.289062 27.992188 23.464844 28.066406 Z M 21.152344 33.753906 C 21.148438 33.761719 21.136719 33.773438 21.113281 33.769531 C 21.089844 33.765625 21.082031 33.753906 21.078125 33.746094 L 18.890625 30.46875 L 19.59375 29.726562 L 22.914062 31.996094 Z M 26.941406 33.746094 C 26.9375 33.753906 26.925781 33.765625 26.902344 33.769531 C 26.882812 33.773438 26.871094 33.761719 26.863281 33.753906 L 25.105469 31.996094 L 28.421875 29.726562 L 29.125 30.46875 Z M 35.972656 25.691406 L 35.972656 24.375 C 35.972656 24.265625 35.945312 24.160156 35.898438 24.0625 L 35.460938 23.191406 C 35.304688 22.875 35.21875 22.519531 35.21875 22.164062 L 35.21875 22.121094 C 35.21875 20.433594 36.589844 19.0625 38.273438 19.0625 L 44.339844 19.0625 L 44.339844 21.984375 C 44.339844 22.457031 44.226562 22.929688 44.015625 23.351562 L 43.660156 24.0625 C 43.613281 24.160156 43.585938 24.265625 43.585938 24.375 L 43.585938 25.878906 C 43.585938 26.917969 43.175781 27.886719 42.429688 28.613281 C 41.683594 29.335938 40.699219 29.71875 39.660156 29.683594 C 37.625 29.625 35.972656 27.832031 35.972656 25.691406 Z M 39.617188 31.089844 C 39.671875 31.09375 39.726562 31.09375 39.78125 31.09375 C 40.316406 31.09375 40.835938 31.011719 41.332031 30.859375 L 41.332031 31.140625 C 41.332031 31.28125 41.347656 31.417969 41.382812 31.550781 L 39.777344 33.15625 L 38.183594 31.558594 C 38.210938 31.433594 38.226562 31.292969 38.226562 31.140625 L 38.226562 30.84375 C 38.667969 30.988281 39.136719 31.078125 39.617188 31.089844 Z M 39.617188 31.089844 "/>
<path style=" stroke:none;fill-rule:nonzero;fill:rgb(0%,0%,0%);fill-opacity:1;" d="M 44.289062 35.703125 C 43.902344 35.703125 43.585938 36.015625 43.585938 36.40625 L 43.585938 40.914062 C 43.585938 41.304688 43.902344 41.617188 44.289062 41.617188 C 44.679688 41.617188 44.992188 41.304688 44.992188 40.914062 L 44.992188 36.40625 C 44.992188 36.015625 44.679688 35.703125 44.289062 35.703125 Z M 44.289062 35.703125 "/>
<path style=" stroke:none;fill-rule:nonzero;fill:rgb(0%,0%,0%);fill-opacity:1;" d="M 3.710938 36.628906 C 3.320312 36.628906 3.007812 36.945312 3.007812 37.332031 L 3.007812 40.914062 C 3.007812 41.304688 3.320312 41.617188 3.710938 41.617188 C 4.097656 41.617188 4.414062 41.304688 4.414062 40.914062 L 4.414062 37.332031 C 4.414062 36.945312 4.097656 36.628906 3.710938 36.628906 Z M 3.710938 36.628906 "/>
<path style=" stroke:none;fill-rule:nonzero;fill:rgb(0%,0%,0%);fill-opacity:1;" d="M 19.449219 14.484375 C 19.449219 14.460938 19.464844 14.441406 19.484375 14.4375 C 20.390625 14.300781 22.191406 14.089844 24.054688 14.214844 C 26.246094 14.363281 27.835938 14.910156 28.773438 15.851562 C 29.050781 16.125 29.492188 16.125 29.769531 15.851562 C 30.042969 15.578125 30.042969 15.132812 29.769531 14.855469 C 27.109375 12.199219 21.546875 12.707031 19.277344 13.046875 C 18.5625 13.15625 18.042969 13.761719 18.042969 14.484375 L 18.042969 16.105469 C 18.042969 16.496094 18.359375 16.808594 18.746094 16.808594 C 19.132812 16.808594 19.449219 16.496094 19.449219 16.105469 Z M 19.449219 14.484375 "/>
<path style=" stroke:none;fill-rule:nonzero;fill:rgb(0%,0%,0%);fill-opacity:1;" d="M 15.738281 37.203125 C 15.351562 37.203125 15.035156 37.519531 15.035156 37.90625 L 15.035156 40.914062 C 15.035156 41.304688 15.351562 41.617188 15.738281 41.617188 C 16.128906 41.617188 16.441406 41.304688 16.441406 40.914062 L 16.441406 37.90625 C 16.441406 37.519531 16.128906 37.203125 15.738281 37.203125 Z M 15.738281 37.203125 "/>
<path style=" stroke:none;fill-rule:nonzero;fill:rgb(0%,0%,0%);fill-opacity:1;" d="M 32.277344 37.203125 C 31.890625 37.203125 31.574219 37.519531 31.574219 37.90625 L 31.574219 40.914062 C 31.574219 41.304688 31.890625 41.617188 32.277344 41.617188 C 32.667969 41.617188 32.980469 41.304688 32.980469 40.914062 L 32.980469 37.90625 C 32.980469 37.519531 32.667969 37.203125 32.277344 37.203125 Z M 32.277344 37.203125 "/>
</g>
</svg>
