<?xml version="1.0" encoding="UTF-8"?>
<svg xmlns="http://www.w3.org/2000/svg" xmlns:xlink="http://www.w3.org/1999/xlink" width="48pt" height="48pt" viewBox="0 0 48 48" version="1.1">
<g id="surface1">
<path style=" stroke:none;fill-rule:nonzero;fill:rgb(27.45098%,31.372549%,34.901961%);fill-opacity:1;" d="M 32.800781 37.230469 C 34.890625 38.917969 37.328125 42.019531 37.328125 47.296875 L 10.703125 47.296875 C 10.703125 42.019531 13.144531 38.917969 15.230469 37.230469 Z M 32.800781 37.230469 "/>
<path style=" stroke:none;fill-rule:nonzero;fill:rgb(23.529412%,27.843137%,30.196078%);fill-opacity:1;" d="M 11.539062 42.367188 C 10.957031 43.941406 10.703125 45.621094 10.703125 47.296875 L 12.578125 47.296875 C 12.578125 42.019531 15.019531 38.917969 17.105469 37.230469 L 15.230469 37.230469 C 14.121094 38.128906 12.914062 39.421875 12.023438 41.230469 C 11.84375 41.601562 11.679688 41.980469 11.539062 42.367188 Z M 11.539062 42.367188 "/>
<path style=" stroke:none;fill-rule:nonzero;fill:rgb(93.72549%,92.941176%,93.333333%);fill-opacity:1;" d="M 21.707031 44.390625 C 17.09375 42.480469 15.230469 37.230469 15.230469 37.230469 C 16.796875 35.964844 18.167969 35.492188 18.167969 35.492188 L 29.867188 35.492188 C 29.867188 35.492188 31.234375 35.964844 32.800781 37.230469 C 32.800781 37.230469 30.9375 42.480469 26.324219 44.390625 Z M 21.707031 44.390625 "/>
<path style=" stroke:none;fill-rule:nonzero;fill:rgb(83.137255%,82.352941%,82.745098%);fill-opacity:1;" d="M 15.785156 38.472656 C 16.226562 37.992188 16.675781 37.582031 17.105469 37.230469 C 18.671875 35.964844 20.042969 35.492188 20.042969 35.492188 L 18.167969 35.492188 C 18.167969 35.492188 18.035156 35.539062 17.800781 35.640625 C 16.878906 36.046875 16.015625 36.597656 15.230469 37.230469 C 15.230469 37.230469 15.410156 37.726562 15.785156 38.472656 Z M 15.785156 38.472656 "/>
<path style=" stroke:none;fill-rule:nonzero;fill:rgb(75.294118%,20.392157%,29.019608%);fill-opacity:1;" d="M 26.324219 44.390625 C 25.621094 44.683594 24.851562 44.898438 24.015625 45.003906 C 23.179688 44.898438 22.414062 44.683594 21.707031 44.390625 C 22.039062 41.625 22.6875 39.328125 22.6875 39.328125 L 24.015625 37.757812 L 25.34375 39.328125 C 25.34375 39.328125 25.996094 41.625 26.324219 44.390625 Z M 26.324219 44.390625 "/>
<path style=" stroke:none;fill-rule:nonzero;fill:rgb(85.490196%,35.686275%,39.607843%);fill-opacity:1;" d="M 26.800781 36.183594 C 26.800781 36.183594 26.738281 37.449219 25.34375 39.328125 L 22.6875 39.328125 C 21.296875 37.449219 21.230469 36.183594 21.230469 36.183594 Z M 26.800781 36.183594 "/>
<path style=" stroke:none;fill-rule:nonzero;fill:rgb(78.431373%,42.745098%,36.078431%);fill-opacity:1;" d="M 4.890625 20.847656 C 4.890625 15.949219 6.898438 11.351562 10.535156 7.902344 C 14.144531 4.484375 18.929688 2.597656 24.015625 2.597656 C 29.101562 2.597656 33.886719 4.484375 37.496094 7.902344 C 41.136719 11.351562 43.140625 15.949219 43.140625 20.847656 Z M 4.890625 20.847656 "/>
<path style=" stroke:none;fill-rule:nonzero;fill:rgb(67.843137%,30.980392%,23.921569%);fill-opacity:1;" d="M 16.160156 7.902344 C 19.09375 5.121094 22.808594 3.355469 26.828125 2.792969 C 25.90625 2.664062 24.964844 2.597656 24.015625 2.597656 C 18.929688 2.597656 14.144531 4.484375 10.535156 7.902344 C 6.898438 11.351562 4.890625 15.949219 4.890625 20.847656 L 10.515625 20.847656 C 10.515625 15.949219 12.523438 11.351562 16.160156 7.902344 Z M 16.160156 7.902344 "/>
<path style=" stroke:none;fill-rule:nonzero;fill:rgb(27.45098%,31.372549%,34.901961%);fill-opacity:1;" d="M 6.988281 2.597656 L 41.042969 2.597656 L 41.042969 12.519531 L 6.988281 12.519531 Z M 6.988281 2.597656 "/>
<path style=" stroke:none;fill-rule:nonzero;fill:rgb(87.45098%,69.803922%,59.215686%);fill-opacity:1;" d="M 44.421875 21.140625 C 44.421875 23.125 42.816406 24.730469 40.832031 24.730469 C 38.847656 24.730469 37.242188 23.125 37.242188 21.140625 C 37.242188 19.15625 38.847656 17.550781 40.832031 17.550781 C 42.816406 17.550781 44.421875 19.15625 44.421875 21.140625 Z M 44.421875 21.140625 "/>
<path style=" stroke:none;fill-rule:nonzero;fill:rgb(98.431373%,76.862745%,67.45098%);fill-opacity:1;" d="M 10.480469 16.070312 C 8.511719 16.8125 7.203125 18.710938 7.199219 20.816406 L 7.199219 20.847656 C 7.199219 29.652344 14.730469 36.789062 24.015625 36.789062 C 33.304688 36.789062 40.832031 29.652344 40.832031 20.847656 C 40.832031 19.28125 40.59375 17.765625 40.148438 16.332031 C 39.875 15.457031 38.894531 15.023438 38.058594 15.398438 C 27.003906 20.304688 19.371094 12.699219 10.480469 16.070312 Z M 10.480469 16.070312 "/>
<path style=" stroke:none;fill-rule:nonzero;fill:rgb(87.45098%,69.803922%,59.215686%);fill-opacity:1;" d="M 10.011719 20.847656 C 10.011719 20.835938 10.011719 20.824219 10.011719 20.816406 C 10.015625 19.460938 10.558594 17.300781 11.472656 15.738281 C 11.144531 15.832031 10.8125 15.941406 10.480469 16.070312 C 9.558594 16.417969 8.78125 17.019531 8.214844 17.773438 C 7.96875 17.628906 7.640625 17.550781 7.199219 17.550781 C 5.21875 17.550781 3.609375 19.15625 3.609375 21.140625 C 3.609375 23.125 5.21875 24.730469 7.199219 24.730469 C 7.382812 24.730469 7.546875 24.71875 7.695312 24.691406 C 9.507812 31.636719 16.125 36.789062 24.015625 36.789062 C 24.488281 36.789062 24.957031 36.769531 25.421875 36.734375 C 16.792969 36.054688 10.011719 29.203125 10.011719 20.847656 Z M 10.011719 20.847656 "/>
<path style=" stroke:none;fill-rule:nonzero;fill:rgb(97.647059%,50.196078%,51.764706%);fill-opacity:1;" d="M 33.964844 24.71875 L 31.636719 24.71875 C 31.25 24.71875 30.933594 24.40625 30.933594 24.015625 C 30.933594 23.628906 31.25 23.3125 31.636719 23.3125 L 33.964844 23.3125 C 34.351562 23.3125 34.667969 23.628906 34.667969 24.015625 C 34.667969 24.40625 34.351562 24.71875 33.964844 24.71875 Z M 33.964844 24.71875 "/>
<path style=" stroke:none;fill-rule:nonzero;fill:rgb(97.647059%,50.196078%,51.764706%);fill-opacity:1;" d="M 16.394531 24.71875 L 14.070312 24.71875 C 13.679688 24.71875 13.367188 24.40625 13.367188 24.015625 C 13.367188 23.628906 13.679688 23.3125 14.070312 23.3125 L 16.394531 23.3125 C 16.785156 23.3125 17.097656 23.628906 17.097656 24.015625 C 17.097656 24.40625 16.785156 24.71875 16.394531 24.71875 Z M 16.394531 24.71875 "/>
<path style=" stroke:none;fill-rule:nonzero;fill:rgb(23.529412%,27.843137%,30.196078%);fill-opacity:1;" d="M 6.988281 2.597656 L 41.042969 2.597656 L 41.042969 7.722656 L 6.988281 7.722656 Z M 6.988281 2.597656 "/>
<path style=" stroke:none;fill-rule:nonzero;fill:rgb(27.45098%,31.372549%,34.901961%);fill-opacity:1;" d="M 43.242188 0.703125 L 4.789062 0.703125 C 4.136719 0.703125 3.609375 1.230469 3.609375 1.882812 L 3.609375 3.726562 C 3.609375 4.378906 4.136719 4.910156 4.789062 4.910156 L 43.242188 4.910156 C 43.894531 4.910156 44.421875 4.378906 44.421875 3.726562 L 44.421875 1.882812 C 44.421875 1.230469 43.894531 0.703125 43.242188 0.703125 Z M 43.242188 0.703125 "/>
<path style=" stroke:none;fill-rule:nonzero;fill:rgb(0%,0%,0%);fill-opacity:1;" d="M 32.800781 22.210938 C 33.1875 22.210938 33.503906 21.894531 33.503906 21.507812 L 33.503906 19.796875 C 33.503906 19.410156 33.1875 19.09375 32.800781 19.09375 C 32.410156 19.09375 32.097656 19.410156 32.097656 19.796875 L 32.097656 21.507812 C 32.097656 21.894531 32.410156 22.210938 32.800781 22.210938 Z M 32.800781 22.210938 "/>
<path style=" stroke:none;fill-rule:nonzero;fill:rgb(0%,0%,0%);fill-opacity:1;" d="M 15.230469 22.210938 C 15.621094 22.210938 15.933594 21.894531 15.933594 21.507812 L 15.933594 19.796875 C 15.933594 19.410156 15.621094 19.09375 15.230469 19.09375 C 14.84375 19.09375 14.527344 19.410156 14.527344 19.796875 L 14.527344 21.507812 C 14.527344 21.894531 14.84375 22.210938 15.230469 22.210938 Z M 15.230469 22.210938 "/>
<path style=" stroke:none;fill-rule:nonzero;fill:rgb(0%,0%,0%);fill-opacity:1;" d="M 26.050781 22.695312 C 25.757812 22.441406 25.3125 22.46875 25.058594 22.761719 C 24.804688 23.050781 24.425781 23.21875 24.015625 23.21875 C 23.605469 23.21875 23.226562 23.050781 22.972656 22.761719 C 22.71875 22.46875 22.273438 22.441406 21.980469 22.695312 C 21.691406 22.953125 21.660156 23.394531 21.914062 23.6875 C 22.433594 24.28125 23.199219 24.625 24.015625 24.625 C 24.832031 24.625 25.597656 24.28125 26.117188 23.6875 C 26.371094 23.394531 26.34375 22.953125 26.050781 22.695312 Z M 26.050781 22.695312 "/>
<path style=" stroke:none;fill-rule:nonzero;fill:rgb(0%,0%,0%);fill-opacity:1;" d="M 2.90625 1.882812 L 2.90625 3.726562 C 2.90625 4.765625 3.75 5.613281 4.789062 5.613281 L 6.285156 5.613281 L 6.285156 12.347656 C 5.375 14.078125 4.75 15.933594 4.433594 17.859375 C 3.5 18.648438 2.90625 19.824219 2.90625 21.140625 C 2.90625 23.5 4.816406 25.417969 7.171875 25.433594 C 8.53125 29.929688 11.832031 33.648438 16.15625 35.71875 C 15.738281 35.976562 15.273438 36.292969 14.789062 36.683594 C 12.605469 38.449219 10 41.722656 10 47.296875 C 10 47.683594 10.316406 48 10.703125 48 L 37.328125 48 C 37.714844 48 38.03125 47.683594 38.03125 47.296875 C 38.03125 41.722656 35.425781 38.449219 33.242188 36.683594 C 32.757812 36.292969 32.292969 35.976562 31.875 35.71875 C 36.199219 33.648438 39.5 29.929688 40.859375 25.433594 C 43.214844 25.417969 45.125 23.5 45.125 21.140625 C 45.125 19.824219 44.53125 18.648438 43.597656 17.859375 C 43.28125 15.933594 42.660156 14.078125 41.746094 12.347656 L 41.746094 5.613281 L 43.242188 5.613281 C 44.28125 5.613281 45.125 4.765625 45.125 3.726562 L 45.125 1.882812 C 45.125 0.84375 44.28125 0 43.242188 0 L 14.347656 0 C 13.960938 0 13.644531 0.316406 13.644531 0.703125 C 13.644531 1.089844 13.960938 1.40625 14.347656 1.40625 L 43.242188 1.40625 C 43.503906 1.40625 43.71875 1.621094 43.71875 1.882812 L 43.71875 3.726562 C 43.71875 3.992188 43.503906 4.207031 43.242188 4.207031 L 4.789062 4.207031 C 4.527344 4.207031 4.3125 3.992188 4.3125 3.726562 L 4.3125 1.882812 C 4.3125 1.621094 4.527344 1.40625 4.789062 1.40625 L 11.535156 1.40625 C 11.925781 1.40625 12.238281 1.089844 12.238281 0.703125 C 12.238281 0.316406 11.925781 0 11.535156 0 L 4.789062 0 C 3.75 0 2.90625 0.84375 2.90625 1.882812 Z M 6.8125 24.003906 C 5.402344 23.8125 4.3125 22.601562 4.3125 21.140625 C 4.3125 19.664062 5.488281 18.382812 6.964844 18.261719 C 6.972656 18.261719 7.0625 18.257812 7.101562 18.257812 C 6.703125 19.058594 6.496094 19.953125 6.496094 20.847656 C 6.496094 21.90625 6.601562 22.964844 6.8125 24.003906 Z M 20.746094 37.199219 C 20.753906 37.226562 20.765625 37.257812 20.773438 37.285156 C 21.035156 38.046875 21.429688 38.757812 21.886719 39.417969 C 21.890625 39.425781 21.925781 39.460938 21.921875 39.46875 C 21.761719 40.085938 21.421875 41.496094 21.160156 43.21875 C 21.152344 43.257812 21.144531 43.296875 21.140625 43.339844 C 21.128906 43.332031 21.117188 43.328125 21.105469 43.320312 C 19.316406 42.324219 17.910156 40.730469 16.875 38.984375 C 16.585938 38.496094 16.324219 37.992188 16.09375 37.472656 C 16.089844 37.46875 16.089844 37.464844 16.085938 37.460938 C 16.769531 36.957031 17.386719 36.617188 17.804688 36.414062 C 18.535156 36.675781 19.285156 36.894531 20.050781 37.0625 C 20.058594 37.0625 20.746094 37.1875 20.746094 37.199219 Z M 22.742188 37.445312 C 23.273438 37.484375 23.804688 37.496094 24.335938 37.488281 C 24.785156 37.480469 25.238281 37.457031 25.6875 37.414062 C 25.683594 37.425781 25.679688 37.433594 25.675781 37.441406 C 25.476562 37.855469 25.242188 38.25 24.980469 38.625 L 23.050781 38.625 C 22.789062 38.25 22.550781 37.851562 22.355469 37.4375 C 22.351562 37.429688 22.347656 37.421875 22.34375 37.417969 C 22.476562 37.429688 22.609375 37.4375 22.742188 37.445312 Z M 24.363281 44.238281 C 24.25 44.257812 24.132812 44.277344 24.015625 44.292969 C 23.898438 44.277344 23.785156 44.257812 23.667969 44.238281 C 23.265625 44.164062 22.867188 44.066406 22.480469 43.929688 C 22.480469 43.929688 22.476562 43.929688 22.476562 43.929688 C 22.476562 43.925781 22.476562 43.921875 22.476562 43.917969 C 22.710938 42.226562 23.046875 40.765625 23.230469 40.03125 L 24.800781 40.03125 C 25.054688 40.03125 25.539062 43.9375 25.554688 43.929688 C 25.554688 43.929688 25.550781 43.933594 25.546875 43.933594 C 25.441406 43.96875 24.652344 44.1875 24.363281 44.238281 Z M 36.609375 46.59375 L 34.144531 46.59375 L 34.144531 43.667969 C 34.144531 43.28125 33.832031 42.964844 33.441406 42.964844 C 33.054688 42.964844 32.738281 43.28125 32.738281 43.667969 L 32.738281 46.59375 L 15.292969 46.59375 L 15.292969 43.667969 C 15.292969 43.28125 14.980469 42.964844 14.589844 42.964844 C 14.203125 42.964844 13.886719 43.28125 13.886719 43.667969 L 13.886719 46.59375 L 11.421875 46.59375 C 11.601562 42.578125 13.300781 39.988281 14.964844 38.398438 C 15.679688 39.910156 17.386719 42.875 20.433594 44.554688 C 21.515625 45.152344 22.703125 45.546875 23.925781 45.703125 C 23.988281 45.707031 24.046875 45.707031 24.105469 45.703125 C 25.792969 45.488281 27.410156 44.808594 28.777344 43.800781 C 31.09375 42.089844 32.453125 39.703125 33.066406 38.402344 C 34.730469 39.988281 36.429688 42.578125 36.609375 46.59375 Z M 30.226562 36.414062 C 30.644531 36.617188 31.261719 36.957031 31.945312 37.460938 C 31.46875 38.535156 30.085938 41.234375 27.578125 42.921875 C 27.355469 43.070312 27.125 43.210938 26.890625 43.339844 C 26.890625 43.328125 26.890625 43.320312 26.886719 43.308594 C 26.738281 42.300781 26.546875 41.300781 26.316406 40.308594 C 26.25 40.03125 26.183594 39.757812 26.113281 39.484375 C 26.113281 39.476562 26.109375 39.472656 26.109375 39.46875 C 26.597656 38.769531 27.019531 38.011719 27.289062 37.199219 C 27.519531 37.160156 27.753906 37.113281 27.984375 37.058594 C 28.746094 36.894531 29.496094 36.675781 30.226562 36.414062 Z M 28.105469 35.589844 C 25.433594 36.25 22.601562 36.25 19.929688 35.589844 C 14.203125 34.167969 9.714844 29.835938 8.339844 24.375 C 7.820312 22.3125 7.433594 19.867188 8.878906 18.074219 C 9.832031 16.890625 11.34375 16.414062 12.785156 16.136719 C 16.371094 15.453125 19.957031 16.34375 23.472656 17.03125 C 25.574219 17.441406 27.75 17.804688 30.070312 17.804688 C 32.683594 17.804688 35.269531 17.292969 37.691406 16.3125 C 38.023438 16.175781 38.402344 15.929688 38.777344 15.972656 C 39.253906 16.023438 39.445312 16.449219 39.566406 16.855469 C 40.304688 19.277344 40.308594 21.925781 39.691406 24.371094 C 38.320312 29.835938 33.828125 34.167969 28.105469 35.589844 Z M 41.21875 24.003906 C 41.226562 23.964844 41.234375 23.925781 41.242188 23.886719 C 41.59375 22.070312 41.632812 20.171875 41.335938 18.335938 C 41.335938 18.335938 41.332031 18.296875 41.328125 18.296875 C 41.75 18.367188 42.140625 18.535156 42.480469 18.769531 C 42.480469 18.773438 42.484375 18.773438 42.488281 18.777344 C 43.234375 19.300781 43.71875 20.164062 43.71875 21.140625 C 43.71875 22.601562 42.628906 23.8125 41.21875 24.003906 Z M 40.339844 5.613281 L 40.339844 11.816406 L 35.046875 11.816406 C 34.65625 11.816406 34.34375 12.132812 34.34375 12.519531 C 34.34375 12.90625 34.65625 13.222656 35.046875 13.222656 L 40.617188 13.222656 C 41.230469 14.429688 41.691406 15.695312 41.996094 17.003906 C 41.878906 16.972656 41.757812 16.945312 41.640625 16.925781 C 41.503906 16.898438 41.09375 16.855469 41.027344 16.851562 C 41.023438 16.84375 41.019531 16.832031 41.019531 16.824219 C 40.917969 16.4375 40.824219 16.023438 40.621094 15.671875 C 40.0625 14.699219 38.796875 14.300781 37.773438 14.753906 C 35.566406 15.734375 33.195312 16.296875 30.78125 16.382812 C 27.226562 16.507812 23.769531 15.601562 20.296875 14.972656 C 17.300781 14.429688 14.371094 14.148438 11.257812 15.066406 C 10.03125 15.429688 8.886719 15.964844 8.007812 16.921875 C 7.933594 16.910156 7.859375 16.898438 7.785156 16.886719 C 7.203125 16.808594 6.601562 16.847656 6.035156 17.007812 C 6.339844 15.695312 6.800781 14.429688 7.414062 13.222656 L 32.296875 13.222656 C 32.683594 13.222656 33 12.910156 33 12.519531 C 33 12.132812 32.683594 11.816406 32.296875 11.816406 L 7.691406 11.816406 L 7.691406 5.613281 Z M 40.339844 5.613281 "/>
</g>
</svg>
