<?xml version="1.0" encoding="UTF-8"?>
<svg xmlns="http://www.w3.org/2000/svg" xmlns:xlink="http://www.w3.org/1999/xlink" width="48pt" height="48pt" viewBox="0 0 48 48" version="1.1">
<defs>
<filter id="alpha" filterUnits="objectBoundingBox" x="0%" y="0%" width="100%" height="100%">
  <feColorMatrix type="matrix" in="SourceGraphic" values="0 0 0 0 1 0 0 0 0 1 0 0 0 0 1 0 0 0 1 0"/>
</filter>
<mask id="mask0">
  <g filter="url(#alpha)">
<rect x="0" y="0" width="48" height="48" style="fill:rgb(0%,0%,0%);fill-opacity:0.101961;stroke:none;"/>
  </g>
</mask>
<clipPath id="clip1">
  <rect width="48" height="48"/>
</clipPath>
<g id="surface6" clip-path="url(#clip1)">
<path style=" stroke:none;fill-rule:nonzero;fill:rgb(0%,0%,0%);fill-opacity:1;" d="M 8.605469 15.101562 L 8.605469 12.445312 C 8.605469 11.914062 9.039062 11.476562 9.570312 11.476562 L 5.523438 11.476562 C 4.992188 11.476562 4.554688 11.914062 4.554688 12.445312 L 4.554688 15.101562 Z M 8.605469 15.101562 "/>
</g>
<mask id="mask1">
  <g filter="url(#alpha)">
<rect x="0" y="0" width="48" height="48" style="fill:rgb(0%,0%,0%);fill-opacity:0.101961;stroke:none;"/>
  </g>
</mask>
<clipPath id="clip2">
  <rect width="48" height="48"/>
</clipPath>
<g id="surface9" clip-path="url(#clip2)">
<path style=" stroke:none;fill-rule:nonzero;fill:rgb(0%,0%,0%);fill-opacity:1;" d="M 3.761719 34.195312 L 3.761719 17.429688 C 3.191406 18.285156 2.214844 18.851562 1.105469 18.851562 C 0.980469 18.851562 0.855469 18.84375 0.734375 18.832031 L 0.734375 32.792969 C 0.855469 32.777344 0.980469 32.769531 1.105469 32.769531 C 2.214844 32.769531 3.191406 33.335938 3.761719 34.195312 Z M 3.761719 34.195312 "/>
</g>
<mask id="mask2">
  <g filter="url(#alpha)">
<rect x="0" y="0" width="48" height="48" style="fill:rgb(0%,0%,0%);fill-opacity:0.101961;stroke:none;"/>
  </g>
</mask>
<clipPath id="clip3">
  <rect width="48" height="48"/>
</clipPath>
<g id="surface12" clip-path="url(#clip3)">
<path style=" stroke:none;fill-rule:nonzero;fill:rgb(0%,0%,0%);fill-opacity:1;" d="M 17.765625 25.8125 C 17.765625 22.652344 20.074219 20.03125 23.09375 19.550781 C 22.769531 19.5 22.433594 19.46875 22.089844 19.46875 C 18.59375 19.46875 15.757812 22.308594 15.757812 25.8125 C 15.757812 29.3125 18.59375 32.152344 22.089844 32.152344 C 22.433594 32.152344 22.769531 32.125 23.09375 32.070312 C 20.074219 31.589844 17.765625 28.972656 17.765625 25.8125 Z M 17.765625 25.8125 "/>
</g>
</defs>
<g id="surface1">
<path style=" stroke:none;fill-rule:nonzero;fill:rgb(22.745098%,72.941176%,40.784314%);fill-opacity:1;" d="M 46.300781 11.476562 L 5.523438 11.476562 C 4.992188 11.476562 4.554688 11.914062 4.554688 12.445312 L 4.554688 15.101562 L 42.480469 15.101562 C 43.011719 15.101562 43.445312 15.535156 43.445312 16.070312 L 43.445312 32.894531 L 46.300781 32.894531 C 46.832031 32.894531 47.265625 32.460938 47.265625 31.929688 L 47.265625 12.445312 C 47.265625 11.914062 46.832031 11.476562 46.300781 11.476562 Z M 46.300781 11.476562 "/>
<use xlink:href="#surface6" mask="url(#mask0)"/>
<path style=" stroke:none;fill-rule:nonzero;fill:rgb(50.588235%,83.137255%,36.862745%);fill-opacity:1;" d="M 43.445312 35.554688 C 43.445312 36.085938 43.011719 36.519531 42.480469 36.519531 L 1.703125 36.519531 C 1.167969 36.519531 0.734375 36.085938 0.734375 35.554688 L 0.734375 16.070312 C 0.734375 15.535156 1.167969 15.101562 1.703125 15.101562 L 42.480469 15.101562 C 43.011719 15.101562 43.445312 15.535156 43.445312 16.070312 Z M 43.445312 35.554688 "/>
<use xlink:href="#surface9" mask="url(#mask1)"/>
<path style=" stroke:none;fill-rule:nonzero;fill:rgb(50.588235%,83.137255%,36.862745%);fill-opacity:1;" d="M 1.105469 32.769531 C 0.980469 32.769531 0.855469 32.777344 0.734375 32.792969 L 0.734375 35.554688 C 0.734375 36.085938 1.167969 36.519531 1.703125 36.519531 L 4.246094 36.519531 C 4.277344 36.339844 4.296875 36.152344 4.296875 35.957031 C 4.296875 34.199219 2.867188 32.769531 1.105469 32.769531 Z M 1.105469 32.769531 "/>
<path style=" stroke:none;fill-rule:nonzero;fill:rgb(50.588235%,83.137255%,36.862745%);fill-opacity:1;" d="M 0.734375 16.070312 L 0.734375 18.832031 C 0.855469 18.84375 0.980469 18.851562 1.105469 18.851562 C 2.867188 18.851562 4.296875 17.425781 4.296875 15.664062 C 4.296875 15.472656 4.277344 15.285156 4.246094 15.101562 L 1.703125 15.101562 C 1.167969 15.101562 0.734375 15.535156 0.734375 16.070312 Z M 0.734375 16.070312 "/>
<path style=" stroke:none;fill-rule:nonzero;fill:rgb(50.588235%,83.137255%,36.862745%);fill-opacity:1;" d="M 43.078125 32.769531 C 41.316406 32.769531 39.886719 34.195312 39.886719 35.957031 C 39.886719 36.152344 39.902344 36.339844 39.9375 36.519531 L 42.480469 36.519531 C 43.011719 36.519531 43.445312 36.085938 43.445312 35.554688 L 43.445312 32.792969 C 43.324219 32.777344 43.203125 32.769531 43.078125 32.769531 Z M 43.078125 32.769531 "/>
<path style=" stroke:none;fill-rule:nonzero;fill:rgb(50.588235%,83.137255%,36.862745%);fill-opacity:1;" d="M 42.480469 15.101562 L 39.9375 15.101562 C 39.902344 15.285156 39.886719 15.472656 39.886719 15.664062 C 39.886719 17.425781 41.3125 18.851562 43.078125 18.851562 C 43.203125 18.851562 43.324219 18.84375 43.445312 18.832031 L 43.445312 16.070312 C 43.445312 15.535156 43.011719 15.101562 42.480469 15.101562 Z M 42.480469 15.101562 "/>
<path style=" stroke:none;fill-rule:nonzero;fill:rgb(22.745098%,72.941176%,40.784314%);fill-opacity:1;" d="M 9.632812 32.152344 C 9.398438 32.152344 9.199219 31.984375 9.15625 31.753906 C 8.835938 29.960938 7.34375 28.621094 5.535156 28.503906 C 5.277344 28.488281 5.082031 28.277344 5.082031 28.023438 L 5.082031 23.601562 C 5.082031 23.347656 5.28125 23.136719 5.535156 23.117188 C 7.34375 23 8.835938 21.664062 9.15625 19.867188 C 9.199219 19.636719 9.398438 19.46875 9.632812 19.46875 L 34.546875 19.46875 C 34.78125 19.46875 34.984375 19.636719 35.023438 19.867188 C 35.347656 21.664062 36.835938 23 38.648438 23.117188 C 38.902344 23.136719 39.101562 23.347656 39.101562 23.601562 L 39.101562 28.023438 C 39.101562 28.277344 38.902344 28.488281 38.648438 28.503906 C 36.835938 28.621094 35.347656 29.960938 35.023438 31.753906 C 34.984375 31.984375 34.78125 32.152344 34.546875 32.152344 Z M 9.632812 32.152344 "/>
<path style=" stroke:none;fill-rule:nonzero;fill:rgb(100%,100%,100%);fill-opacity:1;" d="M 28.425781 25.8125 C 28.425781 22.308594 25.589844 19.46875 22.089844 19.46875 C 18.59375 19.46875 15.757812 22.308594 15.757812 25.8125 C 15.757812 29.3125 18.59375 32.152344 22.089844 32.152344 C 25.589844 32.152344 28.425781 29.3125 28.425781 25.8125 Z M 28.425781 25.8125 "/>
<use xlink:href="#surface12" mask="url(#mask2)"/>
<path style=" stroke:none;fill-rule:nonzero;fill:rgb(0%,0%,0%);fill-opacity:1;" d="M 21.398438 26.542969 C 21.425781 26.542969 22.707031 26.546875 22.707031 26.546875 C 23.019531 26.546875 23.277344 26.804688 23.277344 27.121094 C 23.277344 27.4375 23.019531 27.695312 22.707031 27.695312 L 20.492188 27.695312 C 20.085938 27.695312 19.753906 28.023438 19.753906 28.429688 C 19.753906 28.835938 20.085938 29.164062 20.492188 29.164062 L 21.355469 29.164062 L 21.355469 29.238281 C 21.355469 29.644531 21.683594 29.972656 22.089844 29.972656 C 22.496094 29.972656 22.824219 29.644531 22.824219 29.238281 L 22.824219 29.160156 C 23.894531 29.097656 24.746094 28.207031 24.746094 27.121094 C 24.746094 26.019531 23.871094 25.121094 22.78125 25.082031 C 22.757812 25.078125 22.730469 25.078125 22.707031 25.078125 L 21.476562 25.078125 C 21.160156 25.078125 20.90625 24.820312 20.90625 24.5 C 20.90625 24.183594 21.160156 23.925781 21.476562 23.925781 L 23.691406 23.925781 C 24.097656 23.925781 24.425781 23.597656 24.425781 23.191406 C 24.425781 22.785156 24.097656 22.457031 23.691406 22.457031 L 22.824219 22.457031 L 22.824219 22.382812 C 22.824219 21.976562 22.496094 21.648438 22.089844 21.648438 C 21.683594 21.648438 21.355469 21.976562 21.355469 22.382812 L 21.355469 22.460938 C 20.289062 22.523438 19.4375 23.414062 19.4375 24.5 C 19.4375 25.601562 20.3125 26.503906 21.398438 26.542969 Z M 21.398438 26.542969 "/>
<path style=" stroke:none;fill-rule:nonzero;fill:rgb(0%,0%,0%);fill-opacity:1;" d="M 12.34375 18.734375 L 9.632812 18.734375 C 9.042969 18.734375 8.539062 19.15625 8.433594 19.738281 C 8.171875 21.199219 6.960938 22.289062 5.484375 22.386719 C 4.847656 22.425781 4.347656 22.960938 4.347656 23.601562 L 4.347656 28.023438 C 4.347656 28.660156 4.847656 29.195312 5.484375 29.238281 C 6.960938 29.335938 8.171875 30.421875 8.433594 31.882812 C 8.539062 32.464844 9.042969 32.886719 9.632812 32.886719 L 34.546875 32.886719 C 35.136719 32.886719 35.644531 32.464844 35.746094 31.882812 C 36.011719 30.421875 37.222656 29.335938 38.699219 29.238281 C 39.335938 29.195312 39.835938 28.660156 39.835938 28.023438 L 39.835938 23.601562 C 39.835938 22.960938 39.335938 22.425781 38.695312 22.386719 C 37.222656 22.289062 36.011719 21.199219 35.746094 19.738281 C 35.644531 19.15625 35.140625 18.734375 34.546875 18.734375 L 15.183594 18.734375 C 14.777344 18.734375 14.449219 19.066406 14.449219 19.46875 C 14.449219 19.875 14.777344 20.207031 15.183594 20.207031 L 17.785156 20.207031 C 16.109375 21.5 15.023438 23.53125 15.023438 25.8125 C 15.023438 28.09375 16.109375 30.121094 17.785156 31.417969 L 9.839844 31.417969 C 9.398438 29.472656 7.789062 28.019531 5.816406 27.792969 L 5.816406 23.832031 C 7.789062 23.601562 9.398438 22.152344 9.839844 20.207031 L 12.34375 20.207031 C 12.75 20.207031 13.078125 19.875 13.078125 19.46875 C 13.078125 19.066406 12.75 18.734375 12.34375 18.734375 Z M 34.34375 20.207031 C 34.78125 22.152344 36.394531 23.601562 38.367188 23.832031 L 38.367188 27.792969 C 36.394531 28.019531 34.78125 29.472656 34.34375 31.417969 L 26.394531 31.417969 C 28.074219 30.121094 29.160156 28.09375 29.160156 25.8125 C 29.160156 23.53125 28.074219 21.5 26.394531 20.207031 Z M 16.492188 25.8125 C 16.492188 22.71875 19.003906 20.207031 22.089844 20.207031 C 25.175781 20.207031 27.6875 22.71875 27.6875 25.8125 C 27.6875 28.902344 25.175781 31.417969 22.089844 31.417969 C 19.003906 31.417969 16.492188 28.902344 16.492188 25.8125 Z M 16.492188 25.8125 "/>
<path style=" stroke:none;fill-rule:nonzero;fill:rgb(0%,0%,0%);fill-opacity:1;" d="M 46.296875 10.746094 L 37.519531 10.746094 C 37.113281 10.746094 36.785156 11.074219 36.785156 11.480469 C 36.785156 11.886719 37.113281 12.214844 37.519531 12.214844 L 46.296875 12.214844 C 46.425781 12.214844 46.53125 12.320312 46.53125 12.445312 L 46.53125 31.929688 C 46.53125 32.054688 46.425781 32.160156 46.296875 32.160156 L 44.183594 32.160156 L 44.183594 16.070312 C 44.183594 15.128906 43.417969 14.367188 42.480469 14.367188 L 5.292969 14.367188 L 5.292969 12.445312 C 5.292969 12.320312 5.398438 12.214844 5.523438 12.214844 L 34.679688 12.214844 C 35.085938 12.214844 35.414062 11.886719 35.414062 11.480469 C 35.414062 11.074219 35.085938 10.746094 34.679688 10.746094 L 5.523438 10.746094 C 4.585938 10.746094 3.824219 11.507812 3.824219 12.445312 L 3.824219 14.367188 L 1.703125 14.367188 C 0.761719 14.367188 0 15.128906 0 16.070312 L 0 35.554688 C 0 36.492188 0.761719 37.253906 1.703125 37.253906 L 4.246094 37.253906 C 4.246094 37.253906 4.246094 37.253906 4.25 37.253906 L 31.25 37.253906 C 31.65625 37.253906 31.984375 36.925781 31.984375 36.519531 C 31.984375 36.113281 31.65625 35.785156 31.25 35.785156 L 5.027344 35.785156 C 4.941406 33.824219 3.40625 32.230469 1.46875 32.050781 L 1.46875 19.570312 C 3.40625 19.390625 4.941406 17.796875 5.027344 15.835938 L 39.15625 15.835938 C 39.242188 17.796875 40.773438 19.390625 42.710938 19.570312 L 42.710938 32.050781 C 40.773438 32.230469 39.242188 33.824219 39.15625 35.785156 L 34.1875 35.785156 C 33.785156 35.785156 33.453125 36.113281 33.453125 36.519531 C 33.453125 36.925781 33.785156 37.253906 34.1875 37.253906 L 42.480469 37.253906 C 43.417969 37.253906 44.183594 36.492188 44.183594 35.554688 L 44.183594 33.628906 L 46.296875 33.628906 C 47.238281 33.628906 48 32.867188 48 31.929688 L 48 12.445312 C 48 11.507812 47.238281 10.746094 46.296875 10.746094 Z M 3.554688 35.785156 L 1.703125 35.785156 C 1.574219 35.785156 1.46875 35.679688 1.46875 35.554688 L 1.46875 33.53125 C 2.59375 33.699219 3.472656 34.632812 3.554688 35.785156 Z M 1.46875 18.089844 L 1.46875 16.070312 C 1.46875 15.941406 1.574219 15.835938 1.703125 15.835938 L 3.554688 15.835938 C 3.472656 16.988281 2.59375 17.921875 1.46875 18.089844 Z M 42.710938 35.554688 C 42.710938 35.679688 42.605469 35.785156 42.480469 35.785156 L 40.628906 35.785156 C 40.707031 34.632812 41.585938 33.699219 42.710938 33.53125 Z M 42.710938 18.089844 C 41.585938 17.921875 40.707031 16.988281 40.628906 15.835938 L 42.480469 15.835938 C 42.605469 15.835938 42.710938 15.941406 42.710938 16.070312 Z M 42.710938 18.089844 "/>
<path style=" stroke:none;fill-rule:nonzero;fill:rgb(0%,0%,0%);fill-opacity:1;" d="M 13.765625 24.980469 C 13.765625 24.574219 13.433594 24.246094 13.027344 24.246094 L 9.40625 24.246094 C 9 24.246094 8.667969 24.574219 8.667969 24.980469 C 8.667969 25.386719 9 25.714844 9.40625 25.714844 L 13.027344 25.714844 C 13.433594 25.714844 13.765625 25.386719 13.765625 24.980469 Z M 13.765625 24.980469 "/>
<path style=" stroke:none;fill-rule:nonzero;fill:rgb(0%,0%,0%);fill-opacity:1;" d="M 10.1875 26.300781 C 9.78125 26.300781 9.453125 26.628906 9.453125 27.035156 C 9.453125 27.441406 9.78125 27.769531 10.1875 27.769531 L 12.246094 27.769531 C 12.652344 27.769531 12.980469 27.441406 12.980469 27.035156 C 12.980469 26.628906 12.652344 26.300781 12.246094 26.300781 Z M 10.1875 26.300781 "/>
<path style=" stroke:none;fill-rule:nonzero;fill:rgb(0%,0%,0%);fill-opacity:1;" d="M 31.152344 25.714844 L 34.777344 25.714844 C 35.183594 25.714844 35.511719 25.386719 35.511719 24.980469 C 35.511719 24.574219 35.183594 24.246094 34.777344 24.246094 L 31.152344 24.246094 C 30.746094 24.246094 30.417969 24.574219 30.417969 24.980469 C 30.417969 25.386719 30.746094 25.714844 31.152344 25.714844 Z M 31.152344 25.714844 "/>
<path style=" stroke:none;fill-rule:nonzero;fill:rgb(0%,0%,0%);fill-opacity:1;" d="M 33.992188 26.300781 L 31.9375 26.300781 C 31.53125 26.300781 31.203125 26.628906 31.203125 27.035156 C 31.203125 27.441406 31.53125 27.769531 31.9375 27.769531 L 33.992188 27.769531 C 34.398438 27.769531 34.726562 27.441406 34.726562 27.035156 C 34.726562 26.628906 34.398438 26.300781 33.992188 26.300781 Z M 33.992188 26.300781 "/>
</g>
</svg>
