<?xml version="1.0" encoding="UTF-8"?>
<svg xmlns="http://www.w3.org/2000/svg" xmlns:xlink="http://www.w3.org/1999/xlink" width="48pt" height="48pt" viewBox="0 0 48 48" version="1.1">
<g id="surface1">
<path style=" stroke:none;fill-rule:evenodd;fill:rgb(32.156863%,79.607843%,94.117647%);fill-opacity:1;" d="M 1.554688 6.355469 L 1.554688 44.230469 C 1.554688 45.785156 2.824219 47.054688 4.378906 47.054688 L 34.269531 47.054688 C 35.824219 47.054688 37.09375 45.785156 37.09375 44.230469 L 37.09375 27.273438 L 32.851562 31.046875 L 32.851562 41.269531 C 32.851562 42.039062 32.21875 42.671875 31.449219 42.671875 L 7.027344 42.671875 C 6.257812 42.671875 5.625 42.039062 5.625 41.269531 L 5.625 9.5625 C 5.625 8.792969 6.257812 8.160156 7.027344 8.160156 L 13.835938 8.164062 L 13.835938 3.527344 L 4.378906 3.527344 C 2.824219 3.527344 1.554688 4.800781 1.554688 6.355469 Z M 1.554688 6.355469 "/>
<path style=" stroke:none;fill-rule:evenodd;fill:rgb(32.156863%,79.607843%,94.117647%);fill-opacity:1;" d="M 28.101562 8.164062 L 32.851562 12.910156 L 32.851562 22.859375 L 37.09375 19.082031 L 37.09375 6.355469 C 37.09375 4.800781 35.824219 3.527344 34.269531 3.527344 L 24.753906 3.527344 L 24.753906 8.164062 Z M 28.101562 8.164062 "/>
<path style=" stroke:none;fill-rule:evenodd;fill:rgb(100%,79.607843%,48.627451%);fill-opacity:1;" d="M 13.835938 8.164062 L 24.753906 8.164062 L 24.753906 3.527344 L 21.882812 3.527344 C 21.882812 2.101562 20.722656 0.945312 19.296875 0.945312 C 17.867188 0.945312 16.710938 2.101562 16.710938 3.527344 L 13.835938 3.527344 Z M 13.835938 8.164062 "/>
<path style=" stroke:none;fill-rule:evenodd;fill:rgb(97.647059%,97.647059%,97.647059%);fill-opacity:1;" d="M 5.625 9.5625 L 5.625 41.269531 C 5.625 42.039062 6.257812 42.671875 7.027344 42.671875 L 31.449219 42.671875 C 32.21875 42.671875 32.851562 42.039062 32.851562 41.269531 L 32.851562 31.046875 L 27.648438 35.675781 L 21.0625 37.441406 L 23.582031 31.105469 L 32.851562 22.859375 L 32.851562 12.910156 L 29.507812 12.910156 C 28.734375 12.910156 28.101562 12.277344 28.101562 11.503906 L 28.101562 8.164062 L 13.835938 8.164062 L 7.027344 8.160156 C 6.257812 8.160156 5.625 8.792969 5.625 9.5625 Z M 5.625 9.5625 "/>
<path style=" stroke:none;fill-rule:evenodd;fill:rgb(77.647059%,76.862745%,78.431373%);fill-opacity:1;" d="M 28.101562 11.503906 C 28.101562 12.277344 28.734375 12.910156 29.507812 12.910156 L 32.851562 12.910156 L 28.101562 8.164062 Z M 28.101562 11.503906 "/>
<path style=" stroke:none;fill-rule:evenodd;fill:rgb(100%,79.607843%,48.627451%);fill-opacity:1;" d="M 23.582031 31.105469 L 21.0625 37.441406 L 27.648438 35.675781 L 25.613281 33.386719 Z M 23.582031 31.105469 "/>
<path style=" stroke:none;fill-rule:evenodd;fill:rgb(100%,90.196078%,75.294118%);fill-opacity:1;" d="M 23.582031 31.105469 L 25.613281 33.386719 L 32.851562 26.964844 L 37.09375 23.195312 L 42.058594 18.785156 L 40.011719 16.488281 L 37.09375 19.082031 L 32.851562 22.859375 Z M 23.582031 31.105469 "/>
<path style=" stroke:none;fill-rule:evenodd;fill:rgb(100%,79.607843%,48.627451%);fill-opacity:1;" d="M 25.613281 33.386719 L 27.648438 35.675781 L 32.851562 31.046875 L 37.09375 27.273438 L 44.082031 21.058594 L 42.0625 18.789062 L 42.058594 18.785156 L 37.09375 23.195312 L 32.851562 26.964844 Z M 25.613281 33.386719 "/>
<path style=" stroke:none;fill-rule:evenodd;fill:rgb(95.686275%,38.823529%,43.921569%);fill-opacity:1;" d="M 40.011719 16.488281 L 42.058594 18.785156 L 42.0625 18.789062 L 44.082031 21.058594 L 45.8125 19.519531 C 45.835938 19.496094 45.859375 19.472656 45.882812 19.453125 C 46.59375 18.746094 46.640625 17.589844 45.96875 16.832031 L 45.882812 16.738281 L 44.429688 15.105469 C 43.734375 14.324219 42.523438 14.25 41.742188 14.949219 Z M 40.011719 16.488281 "/>
<path style=" stroke:none;fill-rule:nonzero;fill:rgb(0%,0%,0%);fill-opacity:1;" d="M 46.671875 16.207031 L 45.132812 14.476562 C 44.628906 13.910156 43.933594 13.574219 43.171875 13.53125 C 42.410156 13.484375 41.679688 13.738281 41.117188 14.242188 L 39.386719 15.78125 L 38.039062 16.980469 L 38.039062 6.355469 C 38.039062 4.273438 36.347656 2.582031 34.269531 2.582031 L 22.695312 2.582031 C 22.28125 1.09375 20.914062 0 19.296875 0 C 17.675781 0 16.308594 1.09375 15.894531 2.582031 L 4.378906 2.582031 C 2.300781 2.582031 0.609375 4.273438 0.609375 6.355469 L 0.609375 21.566406 C 0.609375 22.085938 1.03125 22.511719 1.554688 22.511719 C 2.074219 22.511719 2.496094 22.085938 2.496094 21.566406 L 2.496094 6.355469 C 2.496094 5.316406 3.339844 4.472656 4.378906 4.472656 L 12.894531 4.472656 L 12.894531 7.214844 L 7.027344 7.214844 C 5.734375 7.214844 4.679688 8.269531 4.679688 9.5625 L 4.679688 41.269531 C 4.679688 42.5625 5.734375 43.613281 7.027344 43.613281 L 31.449219 43.613281 C 32.742188 43.613281 33.796875 42.5625 33.796875 41.269531 L 33.796875 31.46875 L 36.148438 29.378906 L 36.148438 44.230469 C 36.148438 45.269531 35.304688 46.113281 34.269531 46.113281 L 4.378906 46.113281 C 3.339844 46.113281 2.496094 45.269531 2.496094 44.230469 L 2.496094 29.050781 C 2.496094 28.53125 2.074219 28.105469 1.554688 28.105469 C 1.03125 28.105469 0.609375 28.53125 0.609375 29.050781 L 0.609375 44.230469 C 0.609375 46.308594 2.300781 48 4.378906 48 L 34.269531 48 C 36.347656 48 38.039062 46.308594 38.039062 44.230469 L 38.039062 27.699219 L 44.710938 21.761719 L 46.441406 20.222656 C 47.003906 19.722656 47.339844 19.023438 47.386719 18.261719 C 47.429688 17.503906 47.175781 16.773438 46.671875 16.207031 Z M 25.699219 4.472656 L 34.269531 4.472656 C 35.304688 4.472656 36.148438 5.316406 36.148438 6.355469 L 36.148438 18.660156 L 33.796875 20.753906 L 33.796875 12.910156 C 33.796875 12.660156 33.695312 12.414062 33.519531 12.242188 L 28.769531 7.496094 C 28.59375 7.320312 28.351562 7.21875 28.101562 7.21875 L 25.699219 7.21875 Z M 30.570312 11.964844 L 29.507812 11.964844 C 29.257812 11.964844 29.046875 11.753906 29.046875 11.503906 L 29.046875 10.441406 Z M 14.78125 4.472656 L 16.710938 4.472656 C 17.234375 4.472656 17.65625 4.046875 17.65625 3.527344 C 17.65625 2.625 18.390625 1.886719 19.296875 1.886719 C 20.199219 1.886719 20.9375 2.625 20.9375 3.527344 C 20.9375 4.046875 21.359375 4.472656 21.882812 4.472656 L 23.8125 4.472656 L 23.8125 7.21875 L 14.78125 7.214844 Z M 31.90625 41.269531 C 31.90625 41.515625 31.699219 41.726562 31.449219 41.726562 L 7.027344 41.726562 C 6.777344 41.726562 6.570312 41.515625 6.570312 41.269531 L 6.570312 9.5625 C 6.570312 9.316406 6.777344 9.105469 7.027344 9.105469 L 13.800781 9.105469 C 13.8125 9.105469 13.824219 9.105469 13.835938 9.105469 L 24.753906 9.105469 C 24.757812 9.105469 24.761719 9.105469 24.761719 9.105469 L 27.160156 9.105469 L 27.160156 11.503906 C 27.160156 12.800781 28.210938 13.851562 29.507812 13.851562 L 31.90625 13.851562 L 31.90625 22.433594 L 22.953125 30.398438 C 22.953125 30.398438 22.953125 30.402344 22.949219 30.402344 C 22.871094 30.472656 22.808594 30.558594 22.757812 30.644531 C 22.753906 30.648438 22.753906 30.652344 22.75 30.65625 C 22.75 30.660156 22.746094 30.664062 22.746094 30.667969 C 22.734375 30.691406 22.722656 30.714844 22.710938 30.738281 C 22.710938 30.742188 22.707031 30.75 22.703125 30.753906 L 20.421875 36.496094 L 10.058594 36.496094 C 9.539062 36.496094 9.117188 36.917969 9.117188 37.441406 C 9.117188 37.960938 9.539062 38.382812 10.058594 38.382812 L 21.058594 38.382812 C 21.058594 38.382812 21.058594 38.382812 21.0625 38.382812 C 21.097656 38.382812 21.132812 38.382812 21.167969 38.378906 C 21.171875 38.378906 21.175781 38.375 21.179688 38.375 C 21.1875 38.375 21.195312 38.375 21.203125 38.371094 C 21.230469 38.367188 21.261719 38.363281 21.289062 38.355469 C 21.292969 38.355469 21.300781 38.351562 21.304688 38.351562 L 27.890625 36.585938 C 27.890625 36.585938 27.890625 36.585938 27.894531 36.585938 C 27.957031 36.570312 28.023438 36.542969 28.082031 36.511719 C 28.085938 36.511719 28.09375 36.507812 28.097656 36.507812 C 28.101562 36.503906 28.105469 36.5 28.109375 36.5 C 28.128906 36.488281 28.152344 36.472656 28.171875 36.457031 C 28.179688 36.457031 28.183594 36.453125 28.1875 36.449219 C 28.191406 36.445312 28.191406 36.445312 28.195312 36.445312 C 28.222656 36.425781 28.25 36.40625 28.273438 36.382812 C 28.273438 36.382812 28.273438 36.382812 28.273438 36.378906 L 28.382812 36.285156 L 31.90625 33.148438 Z M 23.894531 32.875 L 24.90625 34.015625 C 24.910156 34.015625 24.910156 34.015625 24.910156 34.015625 C 24.910156 34.019531 24.910156 34.019531 24.910156 34.019531 L 25.925781 35.160156 L 22.632812 36.042969 Z M 36.492188 26.542969 C 36.492188 26.546875 36.488281 26.550781 36.484375 26.550781 L 27.726562 34.34375 L 26.945312 33.464844 L 31.195312 29.671875 C 31.582031 29.324219 31.617188 28.726562 31.269531 28.339844 C 30.921875 27.949219 30.324219 27.917969 29.9375 28.261719 L 25.691406 32.054688 L 24.914062 31.183594 L 33.480469 23.5625 C 33.480469 23.5625 33.484375 23.558594 33.488281 23.554688 L 39.933594 17.820312 L 40.726562 18.707031 L 35.589844 23.265625 C 35.203125 23.613281 35.167969 24.210938 35.511719 24.597656 C 35.699219 24.808594 35.957031 24.917969 36.21875 24.917969 C 36.441406 24.917969 36.664062 24.835938 36.847656 24.679688 L 41.980469 20.117188 L 42.75 20.980469 Z M 45.5 18.152344 C 45.484375 18.410156 45.375 18.644531 45.183594 18.8125 L 44.160156 19.726562 L 41.347656 16.566406 L 42.371094 15.652344 C 42.558594 15.484375 42.804688 15.398438 43.0625 15.414062 C 43.320312 15.429688 43.554688 15.542969 43.722656 15.730469 L 45.261719 17.460938 C 45.429688 17.652344 45.515625 17.898438 45.5 18.152344 Z M 45.5 18.152344 "/>
<path style=" stroke:none;fill-rule:nonzero;fill:rgb(0%,0%,0%);fill-opacity:1;" d="M 10.058594 33.792969 L 17.484375 33.792969 C 18.003906 33.792969 18.429688 33.367188 18.429688 32.847656 C 18.429688 32.328125 18.003906 31.902344 17.484375 31.902344 L 10.058594 31.902344 C 9.539062 31.902344 9.117188 32.324219 9.117188 32.847656 C 9.117188 33.367188 9.539062 33.792969 10.058594 33.792969 Z M 10.058594 33.792969 "/>
<path style=" stroke:none;fill-rule:nonzero;fill:rgb(0%,0%,0%);fill-opacity:1;" d="M 10.058594 29.195312 L 21.0625 29.195312 C 21.582031 29.195312 22.003906 28.773438 22.003906 28.253906 C 22.003906 27.730469 21.582031 27.308594 21.0625 27.308594 L 10.058594 27.308594 C 9.539062 27.308594 9.117188 27.730469 9.117188 28.253906 C 9.117188 28.773438 9.539062 29.195312 10.058594 29.195312 Z M 10.058594 29.195312 "/>
<path style=" stroke:none;fill-rule:nonzero;fill:rgb(0%,0%,0%);fill-opacity:1;" d="M 10.058594 24.601562 L 26.988281 24.601562 C 27.511719 24.601562 27.933594 24.179688 27.933594 23.65625 C 27.933594 23.136719 27.511719 22.710938 26.988281 22.710938 L 10.058594 22.710938 C 9.539062 22.710938 9.117188 23.136719 9.117188 23.65625 C 9.117188 24.179688 9.539062 24.601562 10.058594 24.601562 Z M 10.058594 24.601562 "/>
<path style=" stroke:none;fill-rule:nonzero;fill:rgb(0%,0%,0%);fill-opacity:1;" d="M 10.058594 20.007812 L 26.988281 20.007812 C 27.511719 20.007812 27.933594 19.585938 27.933594 19.0625 C 27.933594 18.542969 27.511719 18.121094 26.988281 18.121094 L 10.058594 18.121094 C 9.539062 18.121094 9.117188 18.542969 9.117188 19.0625 C 9.117188 19.585938 9.539062 20.007812 10.058594 20.007812 Z M 10.058594 20.007812 "/>
<path style=" stroke:none;fill-rule:nonzero;fill:rgb(0%,0%,0%);fill-opacity:1;" d="M 1.554688 26.253906 C 2.074219 26.253906 2.496094 25.832031 2.496094 25.308594 L 2.496094 25.292969 C 2.496094 24.769531 2.074219 24.347656 1.554688 24.347656 C 1.03125 24.347656 0.609375 24.769531 0.609375 25.292969 L 0.609375 25.308594 C 0.609375 25.832031 1.03125 26.253906 1.554688 26.253906 Z M 1.554688 26.253906 "/>
<path style=" stroke:none;fill-rule:nonzero;fill:rgb(0%,0%,0%);fill-opacity:1;" d="M 32.714844 25.824219 L 32.699219 25.835938 C 32.332031 26.207031 32.328125 26.804688 32.699219 27.171875 C 32.882812 27.359375 33.125 27.449219 33.367188 27.449219 C 33.605469 27.449219 33.847656 27.359375 34.03125 27.175781 L 34.046875 27.160156 C 34.414062 26.792969 34.417969 26.195312 34.046875 25.828125 C 33.679688 25.457031 33.082031 25.457031 32.714844 25.824219 Z M 32.714844 25.824219 "/>
<path style=" stroke:none;fill-rule:nonzero;fill:rgb(0%,0%,0%);fill-opacity:1;" d="M 10.058594 15.414062 L 12.992188 15.414062 C 13.515625 15.414062 13.9375 14.992188 13.9375 14.46875 C 13.9375 13.949219 13.515625 13.523438 12.992188 13.523438 L 10.058594 13.523438 C 9.539062 13.523438 9.117188 13.949219 9.117188 14.46875 C 9.117188 14.992188 9.539062 15.414062 10.058594 15.414062 Z M 10.058594 15.414062 "/>
</g>
</svg>
