<svg height="512" viewBox="0 0 64 64" width="512" xmlns="http://www.w3.org/2000/svg"><g id="Point_Of_Sale" data-name="Point Of Sale"><path d="m17 53v8h-14v-8a2.006 2.006 0 0 1 2-2h10a2.006 2.006 0 0 1 2 2z" fill="#898890"/><path d="m15 41v10h-10v-10l2.5 2 2.5-2 2.5 2z" fill="#e6e7e8"/><path d="m61 49v12h-40v-12h4v8h11 10 11v-8z" fill="#898890"/><path d="m21 33h6v6h-6z" fill="#5aaae7"/><path d="m27 33h6v6h-6z" fill="#3d9ae2"/><path d="m39 33v6h-3-3v-6z" fill="#5aaae7"/><path d="m39 33h6v6h-6z" fill="#3d9ae2"/><path d="m46 39v6h-10v-6h3 6z" fill="#acabb1"/><path d="m49 45v4h-16v-4h3 10z" fill="#898890"/><path d="m36 53h10v4h-10z" fill="#c6c5ca"/><path d="m57 49v8h-11v-4h-10v4h-11v-8h8 16z" fill="#acabb1"/><path d="m21 27h6v6h-6z" fill="#3d9ae2"/><path d="m27 27h6v6h-6z" fill="#5aaae7"/><path d="m33 27h6v6h-6z" fill="#3d9ae2"/><path d="m39 27h6v6h-6z" fill="#5aaae7"/><path d="m27 21h6v6h-6z" fill="#3d9ae2"/><path d="m21 21h6v6h-6z" fill="#5aaae7"/><path d="m33 21h6v6h-6z" fill="#5aaae7"/><path d="m39 21h6v6h-6z" fill="#3d9ae2"/><path d="m45 13h16v26h-16z" fill="#d1d3d4"/><path d="m45 13v8h-6-6-6-6v-8z" fill="#ffa733"/><path d="m36 39h10v2h-10z" fill="#898890"/><path d="m61 24v15h-15z" fill="#bcbec0"/><path d="m15 43v8h-8z" fill="#e0e0e2"/><path d="m16 50.184v-9.184a1 1 0 0 0 -1.624-.781l-1.876 1.501-1.878-1.5a1 1 0 0 0 -1.249 0l-1.873 1.499-1.872-1.5a1 1 0 0 0 -1.628.781v9.184a3 3 0 0 0 -2 2.816v8a1 1 0 0 0 1 1h14a1 1 0 0 0 1-1v-8a3 3 0 0 0 -2-2.816zm-9.128-6.4a1 1 0 0 0 1.25 0l1.878-1.503 1.878 1.5a1 1 0 0 0 1.248 0l.878-.7v6.919h-8.004v-6.918zm9.128 16.216h-12v-7a1 1 0 0 1 1-1h10a1 1 0 0 1 1 1z"/><path d="m6 55h8v2h-8z"/><path d="m61 40a1 1 0 0 0 1-1v-26a1 1 0 0 0 -1-1h-40a1 1 0 0 0 -1 1v26a1 1 0 0 0 1 1h14v4h-2a1 1 0 0 0 -1 1v3h-11a1 1 0 0 0 -1 1v12a1 1 0 0 0 1 1h40a1 1 0 0 0 1-1v-12a1 1 0 0 0 -1-1h-11v-3a1 1 0 0 0 -1-1h-2v-4zm-21-12h4v4h-4zm-2 4h-4v-4h4zm6-6h-4v-4h4zm-6 0h-4v-4h4zm-6 0h-4v-4h4zm-6 0h-4v-4h4zm0 2v4h-4v-4zm2 0h4v4h-4zm4 6v4h-4v-4zm2 0h4v4h-4zm6 0h4v4h-4zm20 4h-14v-24h14zm-16-24v6h-22v-6zm-22 20h4v4h-4zm34 16v6h-9v-3a1 1 0 0 0 -1-1h-10a1 1 0 0 0 -1 1v3h-9v-6zm-11 6h-8v-2h8zm15 4h-38v-10h2v7a1 1 0 0 0 1 1h32a1 1 0 0 0 1-1v-7h2zm-12-12h-14v-2h14zm-3-4h-8v-4h8z"/><path d="m48 20h6v2h-6z"/><path d="m56 20h2v2h-2z"/><path d="m48 24h6v2h-6z"/><path d="m56 24h2v2h-2z"/><path d="m48 28h6v2h-6z"/><path d="m56 28h2v2h-2z"/><path d="m48 32h6v2h-6z"/><path d="m56 32h2v2h-2z"/><path d="m40 16h2v2h-2z"/><path d="m36 16h2v2h-2z"/><path d="m32 16h2v2h-2z"/><path d="m8 46h4v2h-4z"/></g></svg>