<?xml version="1.0" encoding="iso-8859-1"?>
<!-- Generator: Adobe Illustrator 19.0.0, SVG Export Plug-In . SVG Version: 6.00 Build 0)  -->
<svg version="1.1" id="Capa_1" xmlns="http://www.w3.org/2000/svg" xmlns:xlink="http://www.w3.org/1999/xlink" x="0px" y="0px"
	 viewBox="0 0 487.939 487.939" style="enable-background:new 0 0 487.939 487.939;" xml:space="preserve">
<path style="fill:#FFB655;" d="M456,75.998h16v-64H8v64h16H456z"/>
<g>
	<path style="fill:#FFDAAA;" d="M312,139.998c0-8.837-7.163-16-16-16h-96c-8.837,0-16,7.163-16,16s7.163,16,16,16h96
		C304.837,155.998,312,148.835,312,139.998z"/>
	<path style="fill:#FFDAAA;" d="M24,75.998h432v336H24V75.998z"/>
</g>
<path style="fill:#9BDF69;" d="M480,387.998l-18.44,18.648l6.656,25.368l-25.304,6.896l-6.904,25.304l-25.36-6.648L392,475.998
	l-18.648-18.44l-25.368,6.656l-6.896-25.304l-25.304-6.904l6.648-25.36L304,387.998l18.44-18.648l-6.656-25.368l25.304-6.896
	l6.904-25.304l25.36,6.648L392,299.998l18.648,18.44l25.368-6.656l6.896,25.304l25.304,6.904l-6.648,25.36L480,387.998z"/>
<path style="fill:#FFB655;" d="M200,123.998h96c8.837,0,16,7.163,16,16l0,0c0,8.837-7.163,16-16,16h-96c-8.837,0-16-7.163-16-16l0,0
	C184,131.162,191.163,123.998,200,123.998z"/>
<g>
	<path style="fill:#231F20;" d="M296,163.998h-96c-13.255,0-24-10.745-24-24s10.745-24,24-24h96c13.255,0,24,10.745,24,24
		S309.255,163.998,296,163.998z M200,131.998c-4.418,0-8,3.582-8,8s3.582,8,8,8h96c4.418,0,8-3.582,8-8s-3.582-8-8-8H200z"/>
	<path style="fill:#231F20;" d="M48,379.998h16v16H48V379.998z"/>
	<path style="fill:#231F20;" d="M80,379.998h16v16H80V379.998z"/>
	<path style="fill:#231F20;" d="M112,379.998h16v16h-16V379.998z"/>
	<path id="SVGCleanerId_0" style="fill:#231F20;" d="M144,379.998h16v16h-16V379.998z"/>
	<g>
		<path id="SVGCleanerId_0_1_" style="fill:#231F20;" d="M144,379.998h16v16h-16V379.998z"/>
	</g>
	<path style="fill:#231F20;" d="M176,379.998h16v16h-16V379.998z"/>
	<path style="fill:#231F20;" d="M208,379.998h16v16h-16V379.998z"/>
	<path style="fill:#231F20;" d="M240,379.998h16v16h-16V379.998z"/>
	<path style="fill:#231F20;" d="M272,379.998h16v16h-16V379.998z"/>
	<path style="fill:#231F20;" d="M485.688,382.398l-15.2-15.408l5.504-20.944c1.118-4.236-1.378-8.583-5.6-9.752L464,334.55V83.998h8
		c4.418,0,8-3.582,8-8v-64c0-4.418-3.582-8-8-8H8c-4.418,0-8,3.582-8,8v64c0,4.418,3.582,8,8,8h8v328c0,4.418,3.582,8,8,8h286.664
		l-2.624,9.976c-1.118,4.236,1.378,8.583,5.6,9.752l20.896,5.696l5.696,20.896c1.169,4.222,5.516,6.718,9.752,5.6l20.952-5.488
		l15.408,15.2c3.117,3.081,8.131,3.081,11.248,0l15.4-15.2l20.96,5.488c4.233,1.113,8.575-1.382,9.744-5.6l5.696-20.888
		l20.904-5.696c4.222-1.169,6.718-5.516,5.6-9.752l-5.504-20.952l15.2-15.408C488.684,390.535,488.726,385.538,485.688,382.398
		L485.688,382.398z M16,67.998v-48h448v48H16z M32,83.998h416v241.336l-4.264-15.656c-1.169-4.222-5.516-6.718-9.752-5.6
		l-20.952,5.488l-15.408-15.2c-3.117-3.081-8.131-3.081-11.248,0l-15.4,15.2l-20.96-5.488c-4.233-1.113-8.575,1.382-9.744,5.6
		l-5.696,20.888l-20.904,5.696c-4.222,1.169-6.718,5.516-5.6,9.752l5.504,20.952l-15.2,15.408c-3.081,3.117-3.081,8.131,0,11.248
		l10.192,10.376H32V83.998z M453.824,408.678l4.648,17.704l-17.664,4.8c-2.724,0.747-4.853,2.876-5.6,5.6l-4.8,17.656l-17.704-4.64
		c-2.733-0.737-5.652,0.041-7.656,2.04L392,464.75l-13.024-12.88c-1.491-1.475-3.502-2.305-5.6-2.312
		c-0.686-0.001-1.37,0.091-2.032,0.272l-17.696,4.64l-4.848-17.672c-0.747-2.724-2.876-4.853-5.6-5.6l-17.664-4.8l4.648-17.696
		c0.718-2.735-0.06-5.645-2.048-7.656l-12.888-13.048l12.88-13.024c1.988-2.011,2.766-4.921,2.048-7.656l-4.648-17.72l17.664-4.8
		c2.724-0.747,4.853-2.876,5.6-5.6l4.8-17.656l17.704,4.64c2.733,0.72,5.644-0.055,7.656-2.04L392,311.246l13.024,12.88
		c2.012,1.985,4.923,2.76,7.656,2.04l17.696-4.64l4.8,17.664c0.747,2.724,2.876,4.853,5.6,5.6l17.664,4.8l-4.648,17.696
		c-0.718,2.735,0.06,5.645,2.048,7.656l12.912,13.056l-12.88,13.024C453.884,403.033,453.106,405.944,453.824,408.678
		L453.824,408.678z"/>
</g>
<g>
</g>
<g>
</g>
<g>
</g>
<g>
</g>
<g>
</g>
<g>
</g>
<g>
</g>
<g>
</g>
<g>
</g>
<g>
</g>
<g>
</g>
<g>
</g>
<g>
</g>
<g>
</g>
<g>
</g>
</svg>
