<svg height="512" viewBox="0 0 64 64" width="512" xmlns="http://www.w3.org/2000/svg"><g id="Shopping_Bag-2" data-name="Shopping Bag"><path d="m20 21h-1-3-7v40h10 2v-40z" fill="#a97c50"/><path d="m36 13v8h-4v-8a5.888 5.888 0 0 0 -1.29-3.69 5.8 5.8 0 0 0 -1.37-1.29 5.91 5.91 0 0 0 -3.34-1.02 6 6 0 0 0 -6 6v8h-4v-8a9.99 9.99 0 0 1 16-7.99 9.074 9.074 0 0 1 1 .86 10 10 0 0 1 1.67 2.15 9.558 9.558 0 0 1 .64 1.33 9.833 9.833 0 0 1 .69 3.65z" fill="#acabb1"/><path d="m21 21h34v40h-34z" fill="#c49a6c"/><path d="m20 21h1a6 6 0 0 1 -12 0z" fill="#8b5e3c"/><path d="m35.31 9.35a6.354 6.354 0 0 0 -1.31 3.86v7.79h-2v-8a5.888 5.888 0 0 0 -1.29-3.69 10.254 10.254 0 0 1 .63-1.29 9.543 9.543 0 0 1 1.59-2.09.435.435 0 0 1 .07-.06 10 10 0 0 1 1.67 2.15 9.558 9.558 0 0 1 .64 1.33z" fill="#898890"/><path d="m38 3a9.934 9.934 0 0 0 -6 2.01 9.427 9.427 0 0 0 -1.07.92 9.543 9.543 0 0 0 -1.59 2.09 9.819 9.819 0 0 0 -1.34 4.98v12a2.006 2.006 0 0 0 2 2 2.015 2.015 0 0 0 2-2v-11.79a6.365 6.365 0 0 1 2.67-5.19 5.737 5.737 0 0 1 2.54-.97 6.006 6.006 0 0 1 6.79 5.95v12a2.006 2.006 0 0 0 2 2 2.015 2.015 0 0 0 2-2v-12a10 10 0 0 0 -10-10z" fill="#c6c5ca"/><path d="m49 42v2h-2v2h-2v-4h2v-2a3.931 3.931 0 0 0 -.36-1.64 3.988 3.988 0 0 1 2.36 3.64z" fill="#a97c50"/><path d="m47 48h2v3a1 1 0 0 1 -1 1h-16a1 1 0 0 1 -1-1v-1h15a1 1 0 0 0 1-1z" fill="#a97c50"/><path d="m47 46v3a1 1 0 0 1 -1 1h-16a1 1 0 0 1 -1-1v-3z" fill="#ff9811"/><path d="m47 40v2h-18v-2a4 4 0 0 1 4-4h10a4 4 0 0 1 4 4z" fill="#ff9811"/><path d="m31 42h14v4h-14z" fill="#cc7400"/><path d="m31 42h14v2h-14z" fill="#aa6100"/><path d="m55 20h-6v-7a10.986 10.986 0 0 0 -17-9.207 10.992 10.992 0 0 0 -17 9.207v7h-6a1 1 0 0 0 -1 1v40a1 1 0 0 0 1 1h46a1 1 0 0 0 1-1v-40a1 1 0 0 0 -1-1zm-8-7v12a1 1 0 0 1 -2 0v-12a7.005 7.005 0 0 0 -7.016-7 7.2 7.2 0 0 0 -.9.058 7.123 7.123 0 0 0 -6.084 7.15v11.792a1 1 0 0 1 -2 0v-12a9 9 0 0 1 18 0zm-12.651-3.348a8.985 8.985 0 0 1 .651 3.348v7h-2v-6.792a5.336 5.336 0 0 1 1.349-3.556zm1.644-1.2a4.716 4.716 0 0 1 1.344-.4 5.008 5.008 0 0 1 5.663 4.948v7h-6v-7a10.966 10.966 0 0 0 -1.007-4.553zm-8.993 4.548v7h-6v-7a5.006 5.006 0 0 1 5-5 4.948 4.948 0 0 1 2.007.43 10.919 10.919 0 0 0 -1.007 4.57zm-7.1 9a5 5 0 0 1 -9.8 0zm-2.9-9a8.985 8.985 0 0 1 13.337-7.876 11.1 11.1 0 0 0 -1.327 1.558 6.938 6.938 0 0 0 -3.01-.682 7.008 7.008 0 0 0 -7 7v7h-2zm-7 47v-34.11a6.979 6.979 0 0 0 10 0v34.11zm44 0h-32v-38h5v3a3 3 0 0 0 6 0v-3h10v3a3 3 0 0 0 6 0v-3h5z"/><path d="m43 35h-10a5.006 5.006 0 0 0 -5 5v2a1 1 0 0 0 1 1h1v2h-1a1 1 0 0 0 -1 1v3a2 2 0 0 0 2 2h16a2 2 0 0 0 2-2v-3a1 1 0 0 0 -1-1h-1v-2h1a1 1 0 0 0 1-1v-2a5.006 5.006 0 0 0 -5-5zm3 14h-16v-2h16zm-2-4h-12v-2h12zm2-4h-16v-1a3 3 0 0 1 3-3v2h2v-2h2v2h2v-2h2v2h2v-2a3 3 0 0 1 3 3z"/></g></svg>